G04 EAGLE Gerber RS-274X export*
G75*
%MOMM*%
%FSLAX34Y34*%
%LPD*%
%INSilkscreen Top*%
%IPPOS*%
%AMOC8*
5,1,8,0,0,1.08239X$1,22.5*%
G01*
%ADD10C,0.127000*%
%ADD11C,0.152400*%
%ADD12R,1.397000X0.762000*%
%ADD13R,1.016000X3.175000*%
%ADD14R,2.667000X1.524000*%
%ADD15C,0.076200*%
%ADD16C,0.101600*%
%ADD17R,0.609600X0.863600*%


D10*
X153035Y449961D02*
X153035Y445135D01*
X155180Y445135D01*
X158631Y445135D02*
X159704Y445135D01*
X158631Y445135D02*
X158566Y445137D01*
X158502Y445143D01*
X158438Y445153D01*
X158374Y445166D01*
X158312Y445184D01*
X158251Y445205D01*
X158191Y445229D01*
X158133Y445258D01*
X158076Y445290D01*
X158022Y445325D01*
X157970Y445363D01*
X157920Y445405D01*
X157873Y445449D01*
X157829Y445496D01*
X157787Y445546D01*
X157749Y445598D01*
X157714Y445652D01*
X157682Y445709D01*
X157653Y445767D01*
X157629Y445827D01*
X157608Y445888D01*
X157590Y445950D01*
X157577Y446014D01*
X157567Y446078D01*
X157561Y446142D01*
X157559Y446207D01*
X157559Y448889D01*
X157561Y448954D01*
X157567Y449018D01*
X157577Y449082D01*
X157590Y449146D01*
X157608Y449208D01*
X157629Y449269D01*
X157653Y449329D01*
X157682Y449387D01*
X157714Y449444D01*
X157749Y449498D01*
X157787Y449550D01*
X157829Y449600D01*
X157873Y449647D01*
X157920Y449691D01*
X157970Y449733D01*
X158022Y449771D01*
X158076Y449806D01*
X158133Y449838D01*
X158191Y449867D01*
X158251Y449891D01*
X158312Y449912D01*
X158374Y449930D01*
X158438Y449943D01*
X158502Y449953D01*
X158566Y449959D01*
X158631Y449961D01*
X159704Y449961D01*
X162342Y449961D02*
X162342Y445135D01*
X162342Y449961D02*
X163683Y449961D01*
X163753Y449959D01*
X163823Y449954D01*
X163893Y449944D01*
X163962Y449932D01*
X164030Y449915D01*
X164097Y449895D01*
X164164Y449872D01*
X164228Y449845D01*
X164292Y449815D01*
X164354Y449781D01*
X164413Y449745D01*
X164471Y449705D01*
X164527Y449662D01*
X164580Y449617D01*
X164631Y449568D01*
X164680Y449517D01*
X164725Y449464D01*
X164768Y449408D01*
X164808Y449350D01*
X164844Y449291D01*
X164878Y449229D01*
X164908Y449165D01*
X164935Y449101D01*
X164958Y449034D01*
X164978Y448967D01*
X164995Y448899D01*
X165007Y448830D01*
X165017Y448760D01*
X165022Y448690D01*
X165024Y448620D01*
X165023Y448620D02*
X165023Y446476D01*
X165024Y446476D02*
X165022Y446406D01*
X165017Y446336D01*
X165007Y446266D01*
X164995Y446197D01*
X164978Y446129D01*
X164958Y446062D01*
X164935Y445995D01*
X164908Y445931D01*
X164878Y445867D01*
X164844Y445805D01*
X164808Y445746D01*
X164768Y445688D01*
X164725Y445632D01*
X164680Y445579D01*
X164631Y445528D01*
X164580Y445479D01*
X164527Y445434D01*
X164471Y445391D01*
X164413Y445351D01*
X164353Y445315D01*
X164292Y445281D01*
X164228Y445251D01*
X164164Y445224D01*
X164097Y445201D01*
X164030Y445181D01*
X163962Y445164D01*
X163893Y445152D01*
X163823Y445142D01*
X163753Y445137D01*
X163683Y445135D01*
X162342Y445135D01*
X168012Y448889D02*
X169352Y449961D01*
X169352Y445135D01*
X168012Y445135D02*
X170693Y445135D01*
D11*
X381000Y453390D02*
X381000Y486410D01*
X381000Y453390D02*
X381002Y453268D01*
X381008Y453146D01*
X381018Y453024D01*
X381031Y452903D01*
X381049Y452782D01*
X381070Y452662D01*
X381096Y452542D01*
X381125Y452424D01*
X381157Y452306D01*
X381194Y452189D01*
X381234Y452074D01*
X381278Y451960D01*
X381326Y451848D01*
X381377Y451737D01*
X381432Y451628D01*
X381490Y451520D01*
X381552Y451415D01*
X381617Y451312D01*
X381685Y451210D01*
X381757Y451111D01*
X381831Y451015D01*
X381909Y450920D01*
X381990Y450829D01*
X382073Y450739D01*
X382159Y450653D01*
X382249Y450570D01*
X382340Y450489D01*
X382435Y450411D01*
X382531Y450337D01*
X382630Y450265D01*
X382732Y450197D01*
X382835Y450132D01*
X382940Y450070D01*
X383048Y450012D01*
X383157Y449957D01*
X383268Y449906D01*
X383380Y449858D01*
X383494Y449814D01*
X383609Y449774D01*
X383726Y449737D01*
X383844Y449705D01*
X383962Y449676D01*
X384082Y449650D01*
X384202Y449629D01*
X384323Y449611D01*
X384444Y449598D01*
X384566Y449588D01*
X384688Y449582D01*
X384810Y449580D01*
X478790Y490220D02*
X478912Y490218D01*
X479034Y490212D01*
X479156Y490202D01*
X479277Y490189D01*
X479398Y490171D01*
X479518Y490150D01*
X479638Y490124D01*
X479756Y490095D01*
X479874Y490063D01*
X479991Y490026D01*
X480106Y489986D01*
X480220Y489942D01*
X480332Y489894D01*
X480443Y489843D01*
X480552Y489788D01*
X480660Y489730D01*
X480765Y489668D01*
X480868Y489603D01*
X480970Y489535D01*
X481069Y489463D01*
X481165Y489389D01*
X481260Y489311D01*
X481351Y489230D01*
X481441Y489147D01*
X481527Y489061D01*
X481610Y488971D01*
X481691Y488880D01*
X481769Y488785D01*
X481843Y488689D01*
X481915Y488590D01*
X481983Y488488D01*
X482048Y488385D01*
X482110Y488280D01*
X482168Y488172D01*
X482223Y488063D01*
X482274Y487952D01*
X482322Y487840D01*
X482366Y487726D01*
X482406Y487611D01*
X482443Y487494D01*
X482475Y487376D01*
X482504Y487258D01*
X482530Y487138D01*
X482551Y487018D01*
X482569Y486897D01*
X482582Y486776D01*
X482592Y486654D01*
X482598Y486532D01*
X482600Y486410D01*
X384810Y490220D02*
X384688Y490218D01*
X384566Y490212D01*
X384444Y490202D01*
X384323Y490189D01*
X384202Y490171D01*
X384082Y490150D01*
X383962Y490124D01*
X383844Y490095D01*
X383726Y490063D01*
X383609Y490026D01*
X383494Y489986D01*
X383380Y489942D01*
X383268Y489894D01*
X383157Y489843D01*
X383048Y489788D01*
X382940Y489730D01*
X382835Y489668D01*
X382732Y489603D01*
X382630Y489535D01*
X382531Y489463D01*
X382435Y489389D01*
X382340Y489311D01*
X382249Y489230D01*
X382159Y489147D01*
X382073Y489061D01*
X381990Y488971D01*
X381909Y488880D01*
X381831Y488785D01*
X381757Y488689D01*
X381685Y488590D01*
X381617Y488488D01*
X381552Y488385D01*
X381490Y488280D01*
X381432Y488172D01*
X381377Y488063D01*
X381326Y487952D01*
X381278Y487840D01*
X381234Y487726D01*
X381194Y487611D01*
X381157Y487494D01*
X381125Y487376D01*
X381096Y487258D01*
X381070Y487138D01*
X381049Y487018D01*
X381031Y486897D01*
X381018Y486776D01*
X381008Y486654D01*
X381002Y486532D01*
X381000Y486410D01*
X478790Y449580D02*
X478912Y449582D01*
X479034Y449588D01*
X479156Y449598D01*
X479277Y449611D01*
X479398Y449629D01*
X479518Y449650D01*
X479638Y449676D01*
X479756Y449705D01*
X479874Y449737D01*
X479991Y449774D01*
X480106Y449814D01*
X480220Y449858D01*
X480332Y449906D01*
X480443Y449957D01*
X480552Y450012D01*
X480660Y450070D01*
X480765Y450132D01*
X480868Y450197D01*
X480970Y450265D01*
X481069Y450337D01*
X481165Y450411D01*
X481260Y450489D01*
X481351Y450570D01*
X481441Y450653D01*
X481527Y450739D01*
X481610Y450829D01*
X481691Y450920D01*
X481769Y451015D01*
X481843Y451111D01*
X481915Y451210D01*
X481983Y451312D01*
X482048Y451415D01*
X482110Y451520D01*
X482168Y451628D01*
X482223Y451737D01*
X482274Y451848D01*
X482322Y451960D01*
X482366Y452074D01*
X482406Y452189D01*
X482443Y452306D01*
X482475Y452424D01*
X482504Y452542D01*
X482530Y452662D01*
X482551Y452782D01*
X482569Y452903D01*
X482582Y453024D01*
X482592Y453146D01*
X482598Y453268D01*
X482600Y453390D01*
X391160Y449580D02*
X384810Y449580D01*
X391160Y449580D02*
X392430Y450850D01*
X391160Y490220D02*
X384810Y490220D01*
X391160Y490220D02*
X392430Y488950D01*
X471170Y450850D02*
X472440Y449580D01*
X471170Y450850D02*
X392430Y450850D01*
X471170Y488950D02*
X472440Y490220D01*
X471170Y488950D02*
X392430Y488950D01*
X482600Y486410D02*
X482600Y453390D01*
X478790Y449580D02*
X472440Y449580D01*
X472440Y490220D02*
X478790Y490220D01*
D12*
X374015Y469900D03*
X489585Y469900D03*
D10*
X464268Y445135D02*
X464268Y433705D01*
X464268Y445135D02*
X467443Y445135D01*
X467554Y445133D01*
X467664Y445127D01*
X467775Y445118D01*
X467885Y445104D01*
X467994Y445087D01*
X468103Y445066D01*
X468211Y445041D01*
X468318Y445012D01*
X468424Y444980D01*
X468529Y444944D01*
X468632Y444904D01*
X468734Y444861D01*
X468835Y444814D01*
X468934Y444763D01*
X469031Y444710D01*
X469125Y444653D01*
X469218Y444592D01*
X469309Y444529D01*
X469398Y444462D01*
X469484Y444392D01*
X469567Y444319D01*
X469649Y444244D01*
X469727Y444166D01*
X469802Y444084D01*
X469875Y444001D01*
X469945Y443915D01*
X470012Y443826D01*
X470075Y443735D01*
X470136Y443642D01*
X470193Y443547D01*
X470246Y443451D01*
X470297Y443352D01*
X470344Y443251D01*
X470387Y443149D01*
X470427Y443046D01*
X470463Y442941D01*
X470495Y442835D01*
X470524Y442728D01*
X470549Y442620D01*
X470570Y442511D01*
X470587Y442402D01*
X470601Y442292D01*
X470610Y442181D01*
X470616Y442071D01*
X470618Y441960D01*
X470616Y441849D01*
X470610Y441739D01*
X470601Y441628D01*
X470587Y441518D01*
X470570Y441409D01*
X470549Y441300D01*
X470524Y441192D01*
X470495Y441085D01*
X470463Y440979D01*
X470427Y440874D01*
X470387Y440771D01*
X470344Y440669D01*
X470297Y440568D01*
X470246Y440469D01*
X470193Y440372D01*
X470136Y440278D01*
X470075Y440185D01*
X470012Y440094D01*
X469945Y440005D01*
X469875Y439919D01*
X469802Y439836D01*
X469727Y439754D01*
X469649Y439676D01*
X469567Y439601D01*
X469484Y439528D01*
X469398Y439458D01*
X469309Y439391D01*
X469218Y439328D01*
X469125Y439267D01*
X469031Y439210D01*
X468934Y439157D01*
X468835Y439106D01*
X468734Y439059D01*
X468632Y439016D01*
X468529Y438976D01*
X468424Y438940D01*
X468318Y438908D01*
X468211Y438879D01*
X468103Y438854D01*
X467994Y438833D01*
X467885Y438816D01*
X467775Y438802D01*
X467664Y438793D01*
X467554Y438787D01*
X467443Y438785D01*
X464268Y438785D01*
X468078Y438785D02*
X470618Y433705D01*
X475615Y442595D02*
X478790Y445135D01*
X478790Y433705D01*
X475615Y433705D02*
X481965Y433705D01*
D11*
X186690Y643890D02*
X173990Y643890D01*
X173990Y651510D01*
X186690Y651510D01*
X191770Y657860D01*
X194310Y657860D01*
X194310Y651510D01*
X207010Y651510D01*
X207010Y643890D01*
X194310Y643890D01*
X194310Y637540D01*
X191770Y637540D01*
X186690Y643890D01*
X139700Y662940D02*
X139700Y693420D01*
X205740Y632460D02*
X210820Y627380D01*
X205740Y662940D02*
X210820Y668020D01*
X190500Y623570D02*
X190500Y618490D01*
X190500Y671830D02*
X190500Y676910D01*
X172720Y629920D02*
X170180Y627380D01*
X172720Y665480D02*
X170180Y668020D01*
X166370Y647700D02*
X161290Y647700D01*
X241300Y659130D02*
X241300Y636270D01*
X241300Y608330D02*
X241300Y601980D01*
X241300Y693420D02*
X241298Y693542D01*
X241292Y693664D01*
X241282Y693786D01*
X241269Y693907D01*
X241251Y694028D01*
X241230Y694148D01*
X241204Y694268D01*
X241175Y694386D01*
X241143Y694504D01*
X241106Y694621D01*
X241066Y694736D01*
X241022Y694850D01*
X240974Y694962D01*
X240923Y695073D01*
X240868Y695182D01*
X240810Y695290D01*
X240748Y695395D01*
X240683Y695498D01*
X240615Y695600D01*
X240543Y695699D01*
X240469Y695795D01*
X240391Y695890D01*
X240310Y695981D01*
X240227Y696071D01*
X240141Y696157D01*
X240051Y696240D01*
X239960Y696321D01*
X239865Y696399D01*
X239769Y696473D01*
X239670Y696545D01*
X239568Y696613D01*
X239465Y696678D01*
X239360Y696740D01*
X239252Y696798D01*
X239143Y696853D01*
X239032Y696904D01*
X238920Y696952D01*
X238806Y696996D01*
X238691Y697036D01*
X238574Y697073D01*
X238456Y697105D01*
X238338Y697134D01*
X238218Y697160D01*
X238098Y697181D01*
X237977Y697199D01*
X237856Y697212D01*
X237734Y697222D01*
X237612Y697228D01*
X237490Y697230D01*
X143510Y697230D02*
X143388Y697228D01*
X143266Y697222D01*
X143144Y697212D01*
X143023Y697199D01*
X142902Y697181D01*
X142782Y697160D01*
X142662Y697134D01*
X142544Y697105D01*
X142426Y697073D01*
X142309Y697036D01*
X142194Y696996D01*
X142080Y696952D01*
X141968Y696904D01*
X141857Y696853D01*
X141748Y696798D01*
X141640Y696740D01*
X141535Y696678D01*
X141432Y696613D01*
X141330Y696545D01*
X141231Y696473D01*
X141135Y696399D01*
X141040Y696321D01*
X140949Y696240D01*
X140859Y696157D01*
X140773Y696071D01*
X140690Y695981D01*
X140609Y695890D01*
X140531Y695795D01*
X140457Y695699D01*
X140385Y695600D01*
X140317Y695498D01*
X140252Y695395D01*
X140190Y695290D01*
X140132Y695182D01*
X140077Y695073D01*
X140026Y694962D01*
X139978Y694850D01*
X139934Y694736D01*
X139894Y694621D01*
X139857Y694504D01*
X139825Y694386D01*
X139796Y694268D01*
X139770Y694148D01*
X139749Y694028D01*
X139731Y693907D01*
X139718Y693786D01*
X139708Y693664D01*
X139702Y693542D01*
X139700Y693420D01*
X139700Y601980D02*
X139702Y601858D01*
X139708Y601736D01*
X139718Y601614D01*
X139731Y601493D01*
X139749Y601372D01*
X139770Y601252D01*
X139796Y601132D01*
X139825Y601014D01*
X139857Y600896D01*
X139894Y600779D01*
X139934Y600664D01*
X139978Y600550D01*
X140026Y600438D01*
X140077Y600327D01*
X140132Y600218D01*
X140190Y600110D01*
X140252Y600005D01*
X140317Y599902D01*
X140385Y599800D01*
X140457Y599701D01*
X140531Y599605D01*
X140609Y599510D01*
X140690Y599419D01*
X140773Y599329D01*
X140859Y599243D01*
X140949Y599160D01*
X141040Y599079D01*
X141135Y599001D01*
X141231Y598927D01*
X141330Y598855D01*
X141432Y598787D01*
X141535Y598722D01*
X141640Y598660D01*
X141748Y598602D01*
X141857Y598547D01*
X141968Y598496D01*
X142080Y598448D01*
X142194Y598404D01*
X142309Y598364D01*
X142426Y598327D01*
X142544Y598295D01*
X142662Y598266D01*
X142782Y598240D01*
X142902Y598219D01*
X143023Y598201D01*
X143144Y598188D01*
X143266Y598178D01*
X143388Y598172D01*
X143510Y598170D01*
X237490Y598170D02*
X237612Y598172D01*
X237734Y598178D01*
X237856Y598188D01*
X237977Y598201D01*
X238098Y598219D01*
X238218Y598240D01*
X238338Y598266D01*
X238456Y598295D01*
X238574Y598327D01*
X238691Y598364D01*
X238806Y598404D01*
X238920Y598448D01*
X239032Y598496D01*
X239143Y598547D01*
X239252Y598602D01*
X239360Y598660D01*
X239465Y598722D01*
X239568Y598787D01*
X239670Y598855D01*
X239769Y598927D01*
X239865Y599001D01*
X239960Y599079D01*
X240051Y599160D01*
X240141Y599243D01*
X240227Y599329D01*
X240310Y599419D01*
X240391Y599510D01*
X240469Y599605D01*
X240543Y599701D01*
X240615Y599800D01*
X240683Y599902D01*
X240748Y600005D01*
X240810Y600110D01*
X240868Y600218D01*
X240923Y600327D01*
X240974Y600438D01*
X241022Y600550D01*
X241066Y600664D01*
X241106Y600779D01*
X241143Y600896D01*
X241175Y601014D01*
X241204Y601132D01*
X241230Y601252D01*
X241251Y601372D01*
X241269Y601493D01*
X241282Y601614D01*
X241292Y601736D01*
X241298Y601858D01*
X241300Y601980D01*
X241300Y687070D02*
X241300Y693420D01*
X237490Y697230D02*
X143510Y697230D01*
X139700Y632460D02*
X139700Y601980D01*
X143510Y598170D02*
X237490Y598170D01*
X170180Y647700D02*
X170186Y648199D01*
X170204Y648697D01*
X170235Y649195D01*
X170278Y649692D01*
X170333Y650187D01*
X170400Y650682D01*
X170479Y651174D01*
X170570Y651664D01*
X170674Y652152D01*
X170789Y652637D01*
X170916Y653120D01*
X171055Y653599D01*
X171206Y654074D01*
X171368Y654546D01*
X171542Y655013D01*
X171727Y655476D01*
X171923Y655935D01*
X172131Y656388D01*
X172350Y656836D01*
X172579Y657279D01*
X172820Y657716D01*
X173071Y658147D01*
X173333Y658571D01*
X173605Y658989D01*
X173887Y659400D01*
X174179Y659805D01*
X174481Y660202D01*
X174792Y660591D01*
X175114Y660972D01*
X175444Y661346D01*
X175783Y661711D01*
X176132Y662068D01*
X176489Y662417D01*
X176854Y662756D01*
X177228Y663086D01*
X177609Y663408D01*
X177998Y663719D01*
X178395Y664021D01*
X178800Y664313D01*
X179211Y664595D01*
X179629Y664867D01*
X180053Y665129D01*
X180484Y665380D01*
X180921Y665621D01*
X181364Y665850D01*
X181812Y666069D01*
X182265Y666277D01*
X182724Y666473D01*
X183187Y666658D01*
X183654Y666832D01*
X184126Y666994D01*
X184601Y667145D01*
X185080Y667284D01*
X185563Y667411D01*
X186048Y667526D01*
X186536Y667630D01*
X187026Y667721D01*
X187518Y667800D01*
X188013Y667867D01*
X188508Y667922D01*
X189005Y667965D01*
X189503Y667996D01*
X190001Y668014D01*
X190500Y668020D01*
X190999Y668014D01*
X191497Y667996D01*
X191995Y667965D01*
X192492Y667922D01*
X192987Y667867D01*
X193482Y667800D01*
X193974Y667721D01*
X194464Y667630D01*
X194952Y667526D01*
X195437Y667411D01*
X195920Y667284D01*
X196399Y667145D01*
X196874Y666994D01*
X197346Y666832D01*
X197813Y666658D01*
X198276Y666473D01*
X198735Y666277D01*
X199188Y666069D01*
X199636Y665850D01*
X200079Y665621D01*
X200516Y665380D01*
X200947Y665129D01*
X201371Y664867D01*
X201789Y664595D01*
X202200Y664313D01*
X202605Y664021D01*
X203002Y663719D01*
X203391Y663408D01*
X203772Y663086D01*
X204146Y662756D01*
X204511Y662417D01*
X204868Y662068D01*
X205217Y661711D01*
X205556Y661346D01*
X205886Y660972D01*
X206208Y660591D01*
X206519Y660202D01*
X206821Y659805D01*
X207113Y659400D01*
X207395Y658989D01*
X207667Y658571D01*
X207929Y658147D01*
X208180Y657716D01*
X208421Y657279D01*
X208650Y656836D01*
X208869Y656388D01*
X209077Y655935D01*
X209273Y655476D01*
X209458Y655013D01*
X209632Y654546D01*
X209794Y654074D01*
X209945Y653599D01*
X210084Y653120D01*
X210211Y652637D01*
X210326Y652152D01*
X210430Y651664D01*
X210521Y651174D01*
X210600Y650682D01*
X210667Y650187D01*
X210722Y649692D01*
X210765Y649195D01*
X210796Y648697D01*
X210814Y648199D01*
X210820Y647700D01*
X210814Y647201D01*
X210796Y646703D01*
X210765Y646205D01*
X210722Y645708D01*
X210667Y645213D01*
X210600Y644718D01*
X210521Y644226D01*
X210430Y643736D01*
X210326Y643248D01*
X210211Y642763D01*
X210084Y642280D01*
X209945Y641801D01*
X209794Y641326D01*
X209632Y640854D01*
X209458Y640387D01*
X209273Y639924D01*
X209077Y639465D01*
X208869Y639012D01*
X208650Y638564D01*
X208421Y638121D01*
X208180Y637684D01*
X207929Y637253D01*
X207667Y636829D01*
X207395Y636411D01*
X207113Y636000D01*
X206821Y635595D01*
X206519Y635198D01*
X206208Y634809D01*
X205886Y634428D01*
X205556Y634054D01*
X205217Y633689D01*
X204868Y633332D01*
X204511Y632983D01*
X204146Y632644D01*
X203772Y632314D01*
X203391Y631992D01*
X203002Y631681D01*
X202605Y631379D01*
X202200Y631087D01*
X201789Y630805D01*
X201371Y630533D01*
X200947Y630271D01*
X200516Y630020D01*
X200079Y629779D01*
X199636Y629550D01*
X199188Y629331D01*
X198735Y629123D01*
X198276Y628927D01*
X197813Y628742D01*
X197346Y628568D01*
X196874Y628406D01*
X196399Y628255D01*
X195920Y628116D01*
X195437Y627989D01*
X194952Y627874D01*
X194464Y627770D01*
X193974Y627679D01*
X193482Y627600D01*
X192987Y627533D01*
X192492Y627478D01*
X191995Y627435D01*
X191497Y627404D01*
X190999Y627386D01*
X190500Y627380D01*
X190001Y627386D01*
X189503Y627404D01*
X189005Y627435D01*
X188508Y627478D01*
X188013Y627533D01*
X187518Y627600D01*
X187026Y627679D01*
X186536Y627770D01*
X186048Y627874D01*
X185563Y627989D01*
X185080Y628116D01*
X184601Y628255D01*
X184126Y628406D01*
X183654Y628568D01*
X183187Y628742D01*
X182724Y628927D01*
X182265Y629123D01*
X181812Y629331D01*
X181364Y629550D01*
X180921Y629779D01*
X180484Y630020D01*
X180053Y630271D01*
X179629Y630533D01*
X179211Y630805D01*
X178800Y631087D01*
X178395Y631379D01*
X177998Y631681D01*
X177609Y631992D01*
X177228Y632314D01*
X176854Y632644D01*
X176489Y632983D01*
X176132Y633332D01*
X175783Y633689D01*
X175444Y634054D01*
X175114Y634428D01*
X174792Y634809D01*
X174481Y635198D01*
X174179Y635595D01*
X173887Y636000D01*
X173605Y636411D01*
X173333Y636829D01*
X173071Y637253D01*
X172820Y637684D01*
X172579Y638121D01*
X172350Y638564D01*
X172131Y639012D01*
X171923Y639465D01*
X171727Y639924D01*
X171542Y640387D01*
X171368Y640854D01*
X171206Y641326D01*
X171055Y641801D01*
X170916Y642280D01*
X170789Y642763D01*
X170674Y643248D01*
X170570Y643736D01*
X170479Y644226D01*
X170400Y644718D01*
X170333Y645213D01*
X170278Y645708D01*
X170235Y646205D01*
X170204Y646703D01*
X170186Y647201D01*
X170180Y647700D01*
X161290Y647700D02*
X161299Y648417D01*
X161325Y649133D01*
X161369Y649849D01*
X161431Y650563D01*
X161510Y651276D01*
X161606Y651986D01*
X161720Y652694D01*
X161851Y653399D01*
X162000Y654100D01*
X162165Y654797D01*
X162348Y655491D01*
X162548Y656179D01*
X162764Y656863D01*
X162997Y657541D01*
X163247Y658213D01*
X163513Y658878D01*
X163796Y659537D01*
X164094Y660189D01*
X164409Y660833D01*
X164739Y661469D01*
X165085Y662098D01*
X165446Y662717D01*
X165822Y663327D01*
X166213Y663928D01*
X166618Y664519D01*
X167038Y665100D01*
X167472Y665671D01*
X167920Y666231D01*
X168382Y666779D01*
X168857Y667316D01*
X169345Y667841D01*
X169845Y668355D01*
X170359Y668855D01*
X170884Y669343D01*
X171421Y669818D01*
X171969Y670280D01*
X172529Y670728D01*
X173100Y671162D01*
X173681Y671582D01*
X174272Y671987D01*
X174873Y672378D01*
X175483Y672754D01*
X176102Y673115D01*
X176731Y673461D01*
X177367Y673791D01*
X178011Y674106D01*
X178663Y674404D01*
X179322Y674687D01*
X179987Y674953D01*
X180659Y675203D01*
X181337Y675436D01*
X182021Y675652D01*
X182709Y675852D01*
X183403Y676035D01*
X184100Y676200D01*
X184801Y676349D01*
X185506Y676480D01*
X186214Y676594D01*
X186924Y676690D01*
X187637Y676769D01*
X188351Y676831D01*
X189067Y676875D01*
X189783Y676901D01*
X190500Y676910D01*
X191217Y676901D01*
X191933Y676875D01*
X192649Y676831D01*
X193363Y676769D01*
X194076Y676690D01*
X194786Y676594D01*
X195494Y676480D01*
X196199Y676349D01*
X196900Y676200D01*
X197597Y676035D01*
X198291Y675852D01*
X198979Y675652D01*
X199663Y675436D01*
X200341Y675203D01*
X201013Y674953D01*
X201678Y674687D01*
X202337Y674404D01*
X202989Y674106D01*
X203633Y673791D01*
X204269Y673461D01*
X204898Y673115D01*
X205517Y672754D01*
X206127Y672378D01*
X206728Y671987D01*
X207319Y671582D01*
X207900Y671162D01*
X208471Y670728D01*
X209031Y670280D01*
X209579Y669818D01*
X210116Y669343D01*
X210641Y668855D01*
X211155Y668355D01*
X211655Y667841D01*
X212143Y667316D01*
X212618Y666779D01*
X213080Y666231D01*
X213528Y665671D01*
X213962Y665100D01*
X214382Y664519D01*
X214787Y663928D01*
X215178Y663327D01*
X215554Y662717D01*
X215915Y662098D01*
X216261Y661469D01*
X216591Y660833D01*
X216906Y660189D01*
X217204Y659537D01*
X217487Y658878D01*
X217753Y658213D01*
X218003Y657541D01*
X218236Y656863D01*
X218452Y656179D01*
X218652Y655491D01*
X218835Y654797D01*
X219000Y654100D01*
X219149Y653399D01*
X219280Y652694D01*
X219394Y651986D01*
X219490Y651276D01*
X219569Y650563D01*
X219631Y649849D01*
X219675Y649133D01*
X219701Y648417D01*
X219710Y647700D01*
X219701Y646983D01*
X219675Y646267D01*
X219631Y645551D01*
X219569Y644837D01*
X219490Y644124D01*
X219394Y643414D01*
X219280Y642706D01*
X219149Y642001D01*
X219000Y641300D01*
X218835Y640603D01*
X218652Y639909D01*
X218452Y639221D01*
X218236Y638537D01*
X218003Y637859D01*
X217753Y637187D01*
X217487Y636522D01*
X217204Y635863D01*
X216906Y635211D01*
X216591Y634567D01*
X216261Y633931D01*
X215915Y633302D01*
X215554Y632683D01*
X215178Y632073D01*
X214787Y631472D01*
X214382Y630881D01*
X213962Y630300D01*
X213528Y629729D01*
X213080Y629169D01*
X212618Y628621D01*
X212143Y628084D01*
X211655Y627559D01*
X211155Y627045D01*
X210641Y626545D01*
X210116Y626057D01*
X209579Y625582D01*
X209031Y625120D01*
X208471Y624672D01*
X207900Y624238D01*
X207319Y623818D01*
X206728Y623413D01*
X206127Y623022D01*
X205517Y622646D01*
X204898Y622285D01*
X204269Y621939D01*
X203633Y621609D01*
X202989Y621294D01*
X202337Y620996D01*
X201678Y620713D01*
X201013Y620447D01*
X200341Y620197D01*
X199663Y619964D01*
X198979Y619748D01*
X198291Y619548D01*
X197597Y619365D01*
X196900Y619200D01*
X196199Y619051D01*
X195494Y618920D01*
X194786Y618806D01*
X194076Y618710D01*
X193363Y618631D01*
X192649Y618569D01*
X191933Y618525D01*
X191217Y618499D01*
X190500Y618490D01*
X189783Y618499D01*
X189067Y618525D01*
X188351Y618569D01*
X187637Y618631D01*
X186924Y618710D01*
X186214Y618806D01*
X185506Y618920D01*
X184801Y619051D01*
X184100Y619200D01*
X183403Y619365D01*
X182709Y619548D01*
X182021Y619748D01*
X181337Y619964D01*
X180659Y620197D01*
X179987Y620447D01*
X179322Y620713D01*
X178663Y620996D01*
X178011Y621294D01*
X177367Y621609D01*
X176731Y621939D01*
X176102Y622285D01*
X175483Y622646D01*
X174873Y623022D01*
X174272Y623413D01*
X173681Y623818D01*
X173100Y624238D01*
X172529Y624672D01*
X171969Y625120D01*
X171421Y625582D01*
X170884Y626057D01*
X170359Y626545D01*
X169845Y627045D01*
X169345Y627559D01*
X168857Y628084D01*
X168382Y628621D01*
X167920Y629169D01*
X167472Y629729D01*
X167038Y630300D01*
X166618Y630881D01*
X166213Y631472D01*
X165822Y632073D01*
X165446Y632683D01*
X165085Y633302D01*
X164739Y633931D01*
X164409Y634567D01*
X164094Y635211D01*
X163796Y635863D01*
X163513Y636522D01*
X163247Y637187D01*
X162997Y637859D01*
X162764Y638537D01*
X162548Y639221D01*
X162348Y639909D01*
X162165Y640603D01*
X162000Y641300D01*
X161851Y642001D01*
X161720Y642706D01*
X161606Y643414D01*
X161510Y644124D01*
X161431Y644837D01*
X161369Y645551D01*
X161325Y646267D01*
X161299Y646983D01*
X161290Y647700D01*
D13*
X222250Y677545D03*
D14*
X203835Y685800D03*
X203835Y609600D03*
D13*
X222250Y617855D03*
D10*
X206375Y592455D02*
X206375Y581025D01*
X203200Y592455D02*
X209550Y592455D01*
X214332Y592455D02*
X214332Y581025D01*
X214332Y592455D02*
X217507Y592455D01*
X217618Y592453D01*
X217728Y592447D01*
X217839Y592438D01*
X217949Y592424D01*
X218058Y592407D01*
X218167Y592386D01*
X218275Y592361D01*
X218382Y592332D01*
X218488Y592300D01*
X218593Y592264D01*
X218696Y592224D01*
X218798Y592181D01*
X218899Y592134D01*
X218998Y592083D01*
X219095Y592030D01*
X219189Y591973D01*
X219282Y591912D01*
X219373Y591849D01*
X219462Y591782D01*
X219548Y591712D01*
X219631Y591639D01*
X219713Y591564D01*
X219791Y591486D01*
X219866Y591404D01*
X219939Y591321D01*
X220009Y591235D01*
X220076Y591146D01*
X220139Y591055D01*
X220200Y590962D01*
X220257Y590867D01*
X220310Y590771D01*
X220361Y590672D01*
X220408Y590571D01*
X220451Y590469D01*
X220491Y590366D01*
X220527Y590261D01*
X220559Y590155D01*
X220588Y590048D01*
X220613Y589940D01*
X220634Y589831D01*
X220651Y589722D01*
X220665Y589612D01*
X220674Y589501D01*
X220680Y589391D01*
X220682Y589280D01*
X220680Y589169D01*
X220674Y589059D01*
X220665Y588948D01*
X220651Y588838D01*
X220634Y588729D01*
X220613Y588620D01*
X220588Y588512D01*
X220559Y588405D01*
X220527Y588299D01*
X220491Y588194D01*
X220451Y588091D01*
X220408Y587989D01*
X220361Y587888D01*
X220310Y587789D01*
X220257Y587693D01*
X220200Y587598D01*
X220139Y587505D01*
X220076Y587414D01*
X220009Y587325D01*
X219939Y587239D01*
X219866Y587156D01*
X219791Y587074D01*
X219713Y586996D01*
X219631Y586921D01*
X219548Y586848D01*
X219462Y586778D01*
X219373Y586711D01*
X219282Y586648D01*
X219189Y586587D01*
X219094Y586530D01*
X218998Y586477D01*
X218899Y586426D01*
X218798Y586379D01*
X218696Y586336D01*
X218593Y586296D01*
X218488Y586260D01*
X218382Y586228D01*
X218275Y586199D01*
X218167Y586174D01*
X218058Y586153D01*
X217949Y586136D01*
X217839Y586122D01*
X217728Y586113D01*
X217618Y586107D01*
X217507Y586105D01*
X214332Y586105D01*
X218142Y586105D02*
X220682Y581025D01*
X226568Y581025D02*
X226568Y592455D01*
X225298Y581025D02*
X227838Y581025D01*
X227838Y592455D02*
X225298Y592455D01*
X233045Y592455D02*
X233045Y581025D01*
X236855Y586105D02*
X233045Y592455D01*
X236855Y586105D02*
X240665Y592455D01*
X240665Y581025D01*
D15*
X211100Y60579D02*
X211100Y51181D01*
X211100Y60579D02*
X213711Y60579D01*
X213812Y60577D01*
X213913Y60571D01*
X214014Y60561D01*
X214114Y60548D01*
X214214Y60530D01*
X214313Y60509D01*
X214411Y60483D01*
X214508Y60454D01*
X214604Y60422D01*
X214698Y60385D01*
X214791Y60345D01*
X214883Y60301D01*
X214972Y60254D01*
X215060Y60203D01*
X215146Y60149D01*
X215229Y60092D01*
X215311Y60032D01*
X215389Y59968D01*
X215466Y59902D01*
X215539Y59832D01*
X215610Y59760D01*
X215678Y59685D01*
X215743Y59607D01*
X215805Y59527D01*
X215864Y59445D01*
X215920Y59360D01*
X215972Y59273D01*
X216021Y59185D01*
X216067Y59094D01*
X216108Y59002D01*
X216147Y58908D01*
X216181Y58813D01*
X216212Y58717D01*
X216239Y58619D01*
X216263Y58521D01*
X216282Y58421D01*
X216298Y58321D01*
X216310Y58221D01*
X216318Y58120D01*
X216322Y58019D01*
X216322Y57917D01*
X216318Y57816D01*
X216310Y57715D01*
X216298Y57615D01*
X216282Y57515D01*
X216263Y57415D01*
X216239Y57317D01*
X216212Y57219D01*
X216181Y57123D01*
X216147Y57028D01*
X216108Y56934D01*
X216067Y56842D01*
X216021Y56751D01*
X215972Y56662D01*
X215920Y56576D01*
X215864Y56491D01*
X215805Y56409D01*
X215743Y56329D01*
X215678Y56251D01*
X215610Y56176D01*
X215539Y56104D01*
X215466Y56034D01*
X215389Y55968D01*
X215311Y55904D01*
X215229Y55844D01*
X215146Y55787D01*
X215060Y55733D01*
X214972Y55682D01*
X214883Y55635D01*
X214791Y55591D01*
X214698Y55551D01*
X214604Y55514D01*
X214508Y55482D01*
X214411Y55453D01*
X214313Y55427D01*
X214214Y55406D01*
X214114Y55388D01*
X214014Y55375D01*
X213913Y55365D01*
X213812Y55359D01*
X213711Y55357D01*
X213711Y55358D02*
X211100Y55358D01*
X214233Y55358D02*
X216321Y51181D01*
X223015Y51181D02*
X223104Y51183D01*
X223192Y51189D01*
X223280Y51198D01*
X223368Y51211D01*
X223455Y51228D01*
X223541Y51248D01*
X223626Y51273D01*
X223711Y51300D01*
X223794Y51332D01*
X223875Y51366D01*
X223955Y51405D01*
X224033Y51446D01*
X224110Y51491D01*
X224184Y51539D01*
X224257Y51590D01*
X224327Y51644D01*
X224394Y51702D01*
X224460Y51762D01*
X224522Y51824D01*
X224582Y51890D01*
X224640Y51957D01*
X224694Y52027D01*
X224745Y52100D01*
X224793Y52174D01*
X224838Y52251D01*
X224879Y52329D01*
X224918Y52409D01*
X224952Y52490D01*
X224984Y52573D01*
X225011Y52658D01*
X225036Y52743D01*
X225056Y52829D01*
X225073Y52916D01*
X225086Y53004D01*
X225095Y53092D01*
X225101Y53180D01*
X225103Y53269D01*
X223015Y51181D02*
X222886Y51183D01*
X222757Y51189D01*
X222628Y51198D01*
X222500Y51211D01*
X222372Y51228D01*
X222245Y51249D01*
X222118Y51273D01*
X221992Y51301D01*
X221867Y51333D01*
X221743Y51368D01*
X221620Y51407D01*
X221498Y51450D01*
X221378Y51496D01*
X221259Y51546D01*
X221141Y51599D01*
X221025Y51655D01*
X220911Y51715D01*
X220798Y51778D01*
X220688Y51845D01*
X220579Y51914D01*
X220473Y51987D01*
X220368Y52063D01*
X220266Y52142D01*
X220167Y52224D01*
X220069Y52308D01*
X219974Y52396D01*
X219882Y52486D01*
X220144Y58491D02*
X220146Y58580D01*
X220152Y58668D01*
X220161Y58756D01*
X220174Y58844D01*
X220191Y58931D01*
X220211Y59017D01*
X220236Y59102D01*
X220263Y59187D01*
X220295Y59270D01*
X220329Y59351D01*
X220368Y59431D01*
X220409Y59509D01*
X220454Y59586D01*
X220502Y59660D01*
X220553Y59733D01*
X220607Y59803D01*
X220665Y59870D01*
X220725Y59936D01*
X220787Y59998D01*
X220853Y60058D01*
X220920Y60116D01*
X220990Y60170D01*
X221063Y60221D01*
X221137Y60269D01*
X221214Y60314D01*
X221292Y60355D01*
X221372Y60394D01*
X221453Y60428D01*
X221536Y60460D01*
X221621Y60487D01*
X221706Y60512D01*
X221792Y60532D01*
X221879Y60549D01*
X221967Y60562D01*
X222055Y60571D01*
X222143Y60577D01*
X222232Y60579D01*
X222352Y60577D01*
X222472Y60572D01*
X222592Y60562D01*
X222711Y60550D01*
X222830Y60533D01*
X222948Y60513D01*
X223066Y60489D01*
X223182Y60462D01*
X223298Y60431D01*
X223413Y60397D01*
X223527Y60359D01*
X223640Y60317D01*
X223751Y60272D01*
X223861Y60224D01*
X223969Y60173D01*
X224076Y60118D01*
X224181Y60060D01*
X224284Y59998D01*
X224385Y59934D01*
X224485Y59866D01*
X224582Y59796D01*
X221187Y56664D02*
X221109Y56712D01*
X221033Y56764D01*
X220960Y56818D01*
X220889Y56876D01*
X220820Y56937D01*
X220754Y57001D01*
X220691Y57068D01*
X220631Y57137D01*
X220574Y57209D01*
X220520Y57283D01*
X220470Y57360D01*
X220422Y57439D01*
X220379Y57519D01*
X220338Y57602D01*
X220302Y57686D01*
X220269Y57771D01*
X220240Y57858D01*
X220214Y57947D01*
X220192Y58036D01*
X220175Y58126D01*
X220161Y58216D01*
X220151Y58308D01*
X220145Y58399D01*
X220143Y58491D01*
X224059Y55096D02*
X224137Y55048D01*
X224213Y54996D01*
X224286Y54942D01*
X224357Y54884D01*
X224426Y54823D01*
X224492Y54759D01*
X224555Y54692D01*
X224615Y54623D01*
X224672Y54551D01*
X224726Y54477D01*
X224776Y54400D01*
X224824Y54321D01*
X224867Y54241D01*
X224908Y54158D01*
X224944Y54074D01*
X224977Y53989D01*
X225006Y53902D01*
X225032Y53813D01*
X225054Y53724D01*
X225071Y53634D01*
X225085Y53544D01*
X225095Y53452D01*
X225101Y53361D01*
X225103Y53269D01*
X224059Y55097D02*
X221187Y56663D01*
X230722Y60579D02*
X230722Y51181D01*
X228112Y60579D02*
X233333Y60579D01*
X246304Y51181D02*
X248915Y51181D01*
X249016Y51183D01*
X249117Y51189D01*
X249218Y51199D01*
X249318Y51212D01*
X249418Y51230D01*
X249517Y51251D01*
X249615Y51277D01*
X249712Y51306D01*
X249808Y51338D01*
X249902Y51375D01*
X249995Y51415D01*
X250087Y51459D01*
X250176Y51506D01*
X250264Y51557D01*
X250350Y51611D01*
X250433Y51668D01*
X250515Y51728D01*
X250593Y51792D01*
X250670Y51858D01*
X250743Y51928D01*
X250814Y52000D01*
X250882Y52075D01*
X250947Y52153D01*
X251009Y52233D01*
X251068Y52315D01*
X251124Y52400D01*
X251176Y52486D01*
X251225Y52575D01*
X251271Y52666D01*
X251312Y52758D01*
X251351Y52852D01*
X251385Y52947D01*
X251416Y53043D01*
X251443Y53141D01*
X251467Y53239D01*
X251486Y53339D01*
X251502Y53439D01*
X251514Y53539D01*
X251522Y53640D01*
X251526Y53741D01*
X251526Y53843D01*
X251522Y53944D01*
X251514Y54045D01*
X251502Y54145D01*
X251486Y54245D01*
X251467Y54345D01*
X251443Y54443D01*
X251416Y54541D01*
X251385Y54637D01*
X251351Y54732D01*
X251312Y54826D01*
X251271Y54918D01*
X251225Y55009D01*
X251176Y55097D01*
X251124Y55184D01*
X251068Y55269D01*
X251009Y55351D01*
X250947Y55431D01*
X250882Y55509D01*
X250814Y55584D01*
X250743Y55656D01*
X250670Y55726D01*
X250593Y55792D01*
X250515Y55856D01*
X250433Y55916D01*
X250350Y55973D01*
X250264Y56027D01*
X250176Y56078D01*
X250087Y56125D01*
X249995Y56169D01*
X249902Y56209D01*
X249808Y56246D01*
X249712Y56278D01*
X249615Y56307D01*
X249517Y56333D01*
X249418Y56354D01*
X249318Y56372D01*
X249218Y56385D01*
X249117Y56395D01*
X249016Y56401D01*
X248915Y56403D01*
X249437Y60579D02*
X246304Y60579D01*
X249437Y60579D02*
X249527Y60577D01*
X249616Y60571D01*
X249706Y60562D01*
X249795Y60548D01*
X249883Y60531D01*
X249970Y60510D01*
X250057Y60485D01*
X250142Y60456D01*
X250226Y60424D01*
X250308Y60389D01*
X250389Y60349D01*
X250468Y60307D01*
X250545Y60261D01*
X250620Y60211D01*
X250693Y60159D01*
X250764Y60103D01*
X250832Y60045D01*
X250897Y59983D01*
X250960Y59919D01*
X251020Y59852D01*
X251077Y59783D01*
X251131Y59711D01*
X251182Y59637D01*
X251230Y59561D01*
X251274Y59483D01*
X251315Y59403D01*
X251353Y59321D01*
X251387Y59238D01*
X251417Y59153D01*
X251444Y59067D01*
X251467Y58981D01*
X251486Y58893D01*
X251501Y58804D01*
X251513Y58715D01*
X251521Y58626D01*
X251525Y58536D01*
X251525Y58446D01*
X251521Y58356D01*
X251513Y58267D01*
X251501Y58178D01*
X251486Y58089D01*
X251467Y58001D01*
X251444Y57915D01*
X251417Y57829D01*
X251387Y57744D01*
X251353Y57661D01*
X251315Y57579D01*
X251274Y57499D01*
X251230Y57421D01*
X251182Y57345D01*
X251131Y57271D01*
X251077Y57199D01*
X251020Y57130D01*
X250960Y57063D01*
X250897Y56999D01*
X250832Y56937D01*
X250764Y56879D01*
X250693Y56823D01*
X250620Y56771D01*
X250545Y56721D01*
X250468Y56675D01*
X250389Y56633D01*
X250308Y56593D01*
X250226Y56558D01*
X250142Y56526D01*
X250057Y56497D01*
X249970Y56472D01*
X249883Y56451D01*
X249795Y56434D01*
X249706Y56420D01*
X249616Y56411D01*
X249527Y56405D01*
X249437Y56403D01*
X249437Y56402D02*
X247348Y56402D01*
X255056Y57446D02*
X257144Y51181D01*
X259233Y57446D01*
X274244Y51181D02*
X277377Y51181D01*
X277466Y51183D01*
X277554Y51189D01*
X277642Y51198D01*
X277730Y51211D01*
X277817Y51228D01*
X277903Y51248D01*
X277988Y51273D01*
X278073Y51300D01*
X278156Y51332D01*
X278237Y51366D01*
X278317Y51405D01*
X278395Y51446D01*
X278472Y51491D01*
X278546Y51539D01*
X278619Y51590D01*
X278689Y51644D01*
X278756Y51702D01*
X278822Y51762D01*
X278884Y51824D01*
X278944Y51890D01*
X279002Y51957D01*
X279056Y52027D01*
X279107Y52100D01*
X279155Y52174D01*
X279200Y52251D01*
X279241Y52329D01*
X279280Y52409D01*
X279314Y52490D01*
X279346Y52573D01*
X279373Y52658D01*
X279398Y52743D01*
X279418Y52829D01*
X279435Y52916D01*
X279448Y53004D01*
X279457Y53092D01*
X279463Y53180D01*
X279465Y53269D01*
X279465Y54314D01*
X279463Y54403D01*
X279457Y54491D01*
X279448Y54579D01*
X279435Y54667D01*
X279418Y54754D01*
X279398Y54840D01*
X279373Y54925D01*
X279346Y55010D01*
X279314Y55093D01*
X279280Y55174D01*
X279241Y55254D01*
X279200Y55332D01*
X279155Y55409D01*
X279107Y55483D01*
X279056Y55556D01*
X279002Y55626D01*
X278944Y55693D01*
X278884Y55759D01*
X278822Y55821D01*
X278756Y55881D01*
X278689Y55939D01*
X278619Y55993D01*
X278546Y56044D01*
X278472Y56092D01*
X278395Y56137D01*
X278317Y56178D01*
X278237Y56217D01*
X278156Y56251D01*
X278073Y56283D01*
X277988Y56310D01*
X277903Y56335D01*
X277817Y56355D01*
X277730Y56372D01*
X277642Y56385D01*
X277554Y56394D01*
X277466Y56400D01*
X277377Y56402D01*
X274244Y56402D01*
X274244Y60579D01*
X279465Y60579D01*
X282996Y57446D02*
X285084Y51181D01*
X287173Y57446D01*
X310207Y56402D02*
X311773Y56402D01*
X311773Y51181D01*
X308640Y51181D01*
X308551Y51183D01*
X308463Y51189D01*
X308375Y51198D01*
X308287Y51211D01*
X308200Y51228D01*
X308114Y51248D01*
X308029Y51273D01*
X307944Y51300D01*
X307861Y51332D01*
X307780Y51366D01*
X307700Y51405D01*
X307622Y51446D01*
X307545Y51491D01*
X307471Y51539D01*
X307398Y51590D01*
X307328Y51644D01*
X307261Y51702D01*
X307195Y51762D01*
X307133Y51824D01*
X307073Y51890D01*
X307015Y51957D01*
X306961Y52027D01*
X306910Y52100D01*
X306862Y52174D01*
X306817Y52251D01*
X306776Y52329D01*
X306737Y52409D01*
X306703Y52490D01*
X306671Y52573D01*
X306644Y52658D01*
X306619Y52743D01*
X306599Y52829D01*
X306582Y52916D01*
X306569Y53004D01*
X306560Y53092D01*
X306554Y53180D01*
X306552Y53269D01*
X306552Y58491D01*
X306554Y58582D01*
X306560Y58673D01*
X306570Y58764D01*
X306584Y58854D01*
X306601Y58943D01*
X306623Y59031D01*
X306649Y59119D01*
X306678Y59205D01*
X306711Y59290D01*
X306748Y59373D01*
X306788Y59455D01*
X306832Y59535D01*
X306879Y59613D01*
X306930Y59689D01*
X306983Y59762D01*
X307040Y59833D01*
X307101Y59902D01*
X307164Y59967D01*
X307229Y60030D01*
X307298Y60090D01*
X307369Y60148D01*
X307442Y60201D01*
X307518Y60252D01*
X307596Y60299D01*
X307676Y60343D01*
X307758Y60383D01*
X307841Y60420D01*
X307926Y60453D01*
X308012Y60482D01*
X308100Y60508D01*
X308188Y60530D01*
X308277Y60547D01*
X308367Y60561D01*
X308458Y60571D01*
X308549Y60577D01*
X308640Y60579D01*
X311773Y60579D01*
X316218Y57446D02*
X316218Y51181D01*
X316218Y57446D02*
X318829Y57446D01*
X318906Y57444D01*
X318982Y57438D01*
X319059Y57429D01*
X319135Y57416D01*
X319210Y57399D01*
X319284Y57379D01*
X319357Y57354D01*
X319428Y57327D01*
X319499Y57296D01*
X319567Y57261D01*
X319634Y57223D01*
X319699Y57182D01*
X319762Y57138D01*
X319822Y57091D01*
X319881Y57040D01*
X319936Y56987D01*
X319989Y56932D01*
X320040Y56873D01*
X320087Y56813D01*
X320131Y56750D01*
X320172Y56685D01*
X320210Y56618D01*
X320245Y56550D01*
X320276Y56479D01*
X320303Y56408D01*
X320328Y56335D01*
X320348Y56261D01*
X320365Y56186D01*
X320378Y56110D01*
X320387Y56034D01*
X320393Y55957D01*
X320395Y55880D01*
X320395Y51181D01*
X328579Y51181D02*
X328579Y60579D01*
X328579Y51181D02*
X325968Y51181D01*
X325891Y51183D01*
X325815Y51189D01*
X325738Y51198D01*
X325662Y51211D01*
X325587Y51228D01*
X325513Y51248D01*
X325440Y51273D01*
X325369Y51300D01*
X325298Y51331D01*
X325230Y51366D01*
X325163Y51404D01*
X325098Y51445D01*
X325035Y51489D01*
X324975Y51536D01*
X324916Y51587D01*
X324861Y51640D01*
X324808Y51695D01*
X324757Y51754D01*
X324710Y51814D01*
X324666Y51877D01*
X324625Y51942D01*
X324587Y52009D01*
X324552Y52077D01*
X324521Y52148D01*
X324494Y52219D01*
X324469Y52292D01*
X324449Y52366D01*
X324432Y52441D01*
X324419Y52517D01*
X324410Y52594D01*
X324404Y52670D01*
X324402Y52747D01*
X324402Y55880D01*
X324404Y55957D01*
X324410Y56033D01*
X324419Y56110D01*
X324432Y56186D01*
X324449Y56261D01*
X324469Y56335D01*
X324494Y56408D01*
X324521Y56479D01*
X324552Y56550D01*
X324587Y56618D01*
X324625Y56685D01*
X324666Y56750D01*
X324710Y56813D01*
X324757Y56873D01*
X324808Y56932D01*
X324861Y56987D01*
X324916Y57040D01*
X324975Y57091D01*
X325035Y57138D01*
X325098Y57182D01*
X325163Y57223D01*
X325230Y57261D01*
X325298Y57296D01*
X325369Y57327D01*
X325440Y57354D01*
X325513Y57379D01*
X325587Y57399D01*
X325662Y57416D01*
X325738Y57429D01*
X325815Y57438D01*
X325891Y57444D01*
X325968Y57446D01*
X328579Y57446D01*
X346634Y60579D02*
X349767Y51181D01*
X352899Y60579D01*
X356167Y57446D02*
X356167Y51181D01*
X355906Y60057D02*
X355906Y60579D01*
X356428Y60579D01*
X356428Y60057D01*
X355906Y60057D01*
X360175Y57446D02*
X360175Y51181D01*
X360175Y57446D02*
X362786Y57446D01*
X362863Y57444D01*
X362939Y57438D01*
X363016Y57429D01*
X363092Y57416D01*
X363167Y57399D01*
X363241Y57379D01*
X363314Y57354D01*
X363385Y57327D01*
X363456Y57296D01*
X363524Y57261D01*
X363591Y57223D01*
X363656Y57182D01*
X363719Y57138D01*
X363779Y57091D01*
X363838Y57040D01*
X363893Y56987D01*
X363946Y56932D01*
X363997Y56873D01*
X364044Y56813D01*
X364088Y56750D01*
X364129Y56685D01*
X364167Y56618D01*
X364202Y56550D01*
X364233Y56479D01*
X364260Y56408D01*
X364285Y56335D01*
X364305Y56261D01*
X364322Y56186D01*
X364335Y56110D01*
X364344Y56034D01*
X364350Y55957D01*
X364352Y55880D01*
X364352Y51181D01*
X443035Y27102D02*
X439902Y17704D01*
X446167Y17704D02*
X443035Y27102D01*
X445384Y20054D02*
X440685Y20054D01*
X449785Y17704D02*
X449785Y23969D01*
X452396Y23969D01*
X452473Y23967D01*
X452549Y23961D01*
X452626Y23952D01*
X452702Y23939D01*
X452777Y23922D01*
X452851Y23902D01*
X452924Y23877D01*
X452995Y23850D01*
X453066Y23819D01*
X453134Y23784D01*
X453201Y23746D01*
X453266Y23705D01*
X453329Y23661D01*
X453389Y23614D01*
X453448Y23563D01*
X453503Y23510D01*
X453556Y23455D01*
X453607Y23396D01*
X453654Y23336D01*
X453698Y23273D01*
X453739Y23208D01*
X453777Y23141D01*
X453812Y23073D01*
X453843Y23002D01*
X453870Y22931D01*
X453895Y22858D01*
X453915Y22784D01*
X453932Y22709D01*
X453945Y22633D01*
X453954Y22557D01*
X453960Y22480D01*
X453962Y22403D01*
X453962Y17704D01*
X459797Y21359D02*
X462146Y21359D01*
X459797Y21358D02*
X459713Y21356D01*
X459628Y21350D01*
X459545Y21340D01*
X459461Y21327D01*
X459379Y21309D01*
X459297Y21288D01*
X459216Y21263D01*
X459137Y21235D01*
X459059Y21202D01*
X458983Y21166D01*
X458908Y21127D01*
X458835Y21084D01*
X458764Y21038D01*
X458696Y20989D01*
X458630Y20937D01*
X458566Y20881D01*
X458505Y20823D01*
X458447Y20762D01*
X458391Y20698D01*
X458339Y20632D01*
X458290Y20564D01*
X458244Y20493D01*
X458201Y20420D01*
X458162Y20345D01*
X458126Y20269D01*
X458093Y20191D01*
X458065Y20112D01*
X458040Y20031D01*
X458019Y19949D01*
X458001Y19867D01*
X457988Y19783D01*
X457978Y19700D01*
X457972Y19615D01*
X457970Y19531D01*
X457972Y19447D01*
X457978Y19362D01*
X457988Y19279D01*
X458001Y19195D01*
X458019Y19113D01*
X458040Y19031D01*
X458065Y18950D01*
X458093Y18871D01*
X458126Y18793D01*
X458162Y18717D01*
X458201Y18642D01*
X458244Y18569D01*
X458290Y18498D01*
X458339Y18430D01*
X458391Y18364D01*
X458447Y18300D01*
X458505Y18239D01*
X458566Y18181D01*
X458630Y18125D01*
X458696Y18073D01*
X458764Y18024D01*
X458835Y17978D01*
X458908Y17935D01*
X458983Y17896D01*
X459059Y17860D01*
X459137Y17827D01*
X459216Y17799D01*
X459297Y17774D01*
X459379Y17753D01*
X459461Y17735D01*
X459545Y17722D01*
X459628Y17712D01*
X459713Y17706D01*
X459797Y17704D01*
X462146Y17704D01*
X462146Y22403D01*
X462144Y22480D01*
X462138Y22556D01*
X462129Y22633D01*
X462116Y22709D01*
X462099Y22784D01*
X462079Y22858D01*
X462054Y22931D01*
X462027Y23002D01*
X461996Y23073D01*
X461961Y23141D01*
X461923Y23208D01*
X461882Y23273D01*
X461838Y23336D01*
X461791Y23396D01*
X461740Y23455D01*
X461687Y23510D01*
X461632Y23563D01*
X461573Y23614D01*
X461513Y23661D01*
X461450Y23705D01*
X461385Y23746D01*
X461318Y23784D01*
X461250Y23819D01*
X461179Y23850D01*
X461108Y23877D01*
X461035Y23902D01*
X460961Y23922D01*
X460886Y23939D01*
X460810Y23952D01*
X460733Y23961D01*
X460657Y23967D01*
X460580Y23969D01*
X458491Y23969D01*
X466370Y27102D02*
X466370Y19270D01*
X466372Y19193D01*
X466378Y19117D01*
X466387Y19040D01*
X466400Y18964D01*
X466417Y18889D01*
X466437Y18815D01*
X466462Y18742D01*
X466489Y18671D01*
X466520Y18600D01*
X466555Y18532D01*
X466593Y18465D01*
X466634Y18400D01*
X466678Y18337D01*
X466725Y18277D01*
X466776Y18218D01*
X466829Y18163D01*
X466884Y18110D01*
X466943Y18059D01*
X467003Y18012D01*
X467066Y17968D01*
X467131Y17927D01*
X467198Y17889D01*
X467266Y17854D01*
X467337Y17823D01*
X467408Y17796D01*
X467481Y17771D01*
X467555Y17751D01*
X467630Y17734D01*
X467706Y17721D01*
X467783Y17712D01*
X467859Y17706D01*
X467936Y17704D01*
X471121Y19792D02*
X471121Y21881D01*
X471122Y21881D02*
X471124Y21971D01*
X471130Y22060D01*
X471139Y22150D01*
X471153Y22239D01*
X471170Y22327D01*
X471191Y22414D01*
X471216Y22501D01*
X471245Y22586D01*
X471277Y22670D01*
X471312Y22752D01*
X471352Y22833D01*
X471394Y22912D01*
X471440Y22989D01*
X471490Y23064D01*
X471542Y23137D01*
X471598Y23208D01*
X471656Y23276D01*
X471718Y23341D01*
X471782Y23404D01*
X471849Y23464D01*
X471918Y23521D01*
X471990Y23575D01*
X472064Y23626D01*
X472140Y23674D01*
X472218Y23718D01*
X472298Y23759D01*
X472380Y23797D01*
X472463Y23831D01*
X472548Y23861D01*
X472634Y23888D01*
X472720Y23911D01*
X472808Y23930D01*
X472897Y23945D01*
X472986Y23957D01*
X473075Y23965D01*
X473165Y23969D01*
X473255Y23969D01*
X473345Y23965D01*
X473434Y23957D01*
X473523Y23945D01*
X473612Y23930D01*
X473700Y23911D01*
X473786Y23888D01*
X473872Y23861D01*
X473957Y23831D01*
X474040Y23797D01*
X474122Y23759D01*
X474202Y23718D01*
X474280Y23674D01*
X474356Y23626D01*
X474430Y23575D01*
X474502Y23521D01*
X474571Y23464D01*
X474638Y23404D01*
X474702Y23341D01*
X474764Y23276D01*
X474822Y23208D01*
X474878Y23137D01*
X474930Y23064D01*
X474980Y22989D01*
X475026Y22912D01*
X475068Y22833D01*
X475108Y22752D01*
X475143Y22670D01*
X475175Y22586D01*
X475204Y22501D01*
X475229Y22414D01*
X475250Y22327D01*
X475267Y22239D01*
X475281Y22150D01*
X475290Y22060D01*
X475296Y21971D01*
X475298Y21881D01*
X475298Y19792D01*
X475296Y19702D01*
X475290Y19613D01*
X475281Y19523D01*
X475267Y19434D01*
X475250Y19346D01*
X475229Y19259D01*
X475204Y19172D01*
X475175Y19087D01*
X475143Y19003D01*
X475108Y18921D01*
X475068Y18840D01*
X475026Y18761D01*
X474980Y18684D01*
X474930Y18609D01*
X474878Y18536D01*
X474822Y18465D01*
X474764Y18397D01*
X474702Y18332D01*
X474638Y18269D01*
X474571Y18209D01*
X474502Y18152D01*
X474430Y18098D01*
X474356Y18047D01*
X474280Y17999D01*
X474202Y17955D01*
X474122Y17914D01*
X474040Y17876D01*
X473957Y17842D01*
X473872Y17812D01*
X473786Y17785D01*
X473700Y17762D01*
X473612Y17743D01*
X473523Y17728D01*
X473434Y17716D01*
X473345Y17708D01*
X473255Y17704D01*
X473165Y17704D01*
X473075Y17708D01*
X472986Y17716D01*
X472897Y17728D01*
X472808Y17743D01*
X472720Y17762D01*
X472634Y17785D01*
X472548Y17812D01*
X472463Y17842D01*
X472380Y17876D01*
X472298Y17914D01*
X472218Y17955D01*
X472140Y17999D01*
X472064Y18047D01*
X471990Y18098D01*
X471918Y18152D01*
X471849Y18209D01*
X471782Y18269D01*
X471718Y18332D01*
X471656Y18397D01*
X471598Y18465D01*
X471542Y18536D01*
X471490Y18609D01*
X471440Y18684D01*
X471394Y18761D01*
X471352Y18840D01*
X471312Y18921D01*
X471277Y19003D01*
X471245Y19087D01*
X471216Y19172D01*
X471191Y19259D01*
X471170Y19346D01*
X471153Y19434D01*
X471139Y19523D01*
X471130Y19613D01*
X471124Y19702D01*
X471122Y19792D01*
X480567Y17704D02*
X483177Y17704D01*
X480567Y17704D02*
X480490Y17706D01*
X480414Y17712D01*
X480337Y17721D01*
X480261Y17734D01*
X480186Y17751D01*
X480112Y17771D01*
X480039Y17796D01*
X479968Y17823D01*
X479897Y17854D01*
X479829Y17889D01*
X479762Y17927D01*
X479697Y17968D01*
X479634Y18012D01*
X479574Y18059D01*
X479515Y18110D01*
X479460Y18163D01*
X479407Y18218D01*
X479356Y18277D01*
X479309Y18337D01*
X479265Y18400D01*
X479224Y18465D01*
X479186Y18532D01*
X479151Y18600D01*
X479120Y18671D01*
X479093Y18742D01*
X479068Y18815D01*
X479048Y18889D01*
X479031Y18964D01*
X479018Y19040D01*
X479009Y19117D01*
X479003Y19193D01*
X479001Y19270D01*
X479000Y19270D02*
X479000Y22403D01*
X479001Y22403D02*
X479003Y22480D01*
X479009Y22556D01*
X479018Y22633D01*
X479031Y22709D01*
X479048Y22784D01*
X479068Y22858D01*
X479093Y22931D01*
X479120Y23002D01*
X479151Y23073D01*
X479186Y23141D01*
X479224Y23208D01*
X479265Y23273D01*
X479309Y23336D01*
X479356Y23396D01*
X479407Y23455D01*
X479460Y23510D01*
X479515Y23563D01*
X479574Y23614D01*
X479634Y23661D01*
X479697Y23705D01*
X479762Y23746D01*
X479829Y23784D01*
X479897Y23819D01*
X479968Y23850D01*
X480039Y23877D01*
X480112Y23902D01*
X480186Y23922D01*
X480261Y23939D01*
X480337Y23952D01*
X480414Y23961D01*
X480490Y23967D01*
X480567Y23969D01*
X483177Y23969D01*
X483177Y16138D01*
X483175Y16061D01*
X483169Y15985D01*
X483160Y15908D01*
X483147Y15832D01*
X483130Y15757D01*
X483110Y15683D01*
X483085Y15610D01*
X483058Y15539D01*
X483027Y15468D01*
X482992Y15400D01*
X482954Y15333D01*
X482913Y15268D01*
X482869Y15205D01*
X482822Y15145D01*
X482771Y15086D01*
X482718Y15031D01*
X482663Y14978D01*
X482604Y14927D01*
X482544Y14880D01*
X482481Y14836D01*
X482416Y14795D01*
X482349Y14757D01*
X482281Y14722D01*
X482210Y14691D01*
X482139Y14664D01*
X482066Y14639D01*
X481992Y14619D01*
X481917Y14602D01*
X481841Y14589D01*
X481765Y14580D01*
X481688Y14574D01*
X481611Y14572D01*
X481611Y14571D02*
X479522Y14571D01*
X493022Y17704D02*
X493022Y27102D01*
X491977Y17704D02*
X494066Y17704D01*
X494066Y27102D02*
X491977Y27102D01*
X497943Y23969D02*
X497943Y17704D01*
X497943Y23969D02*
X500554Y23969D01*
X500631Y23967D01*
X500707Y23961D01*
X500784Y23952D01*
X500860Y23939D01*
X500935Y23922D01*
X501009Y23902D01*
X501082Y23877D01*
X501153Y23850D01*
X501224Y23819D01*
X501292Y23784D01*
X501359Y23746D01*
X501424Y23705D01*
X501487Y23661D01*
X501547Y23614D01*
X501606Y23563D01*
X501661Y23510D01*
X501714Y23455D01*
X501765Y23396D01*
X501812Y23336D01*
X501856Y23273D01*
X501897Y23208D01*
X501935Y23141D01*
X501970Y23073D01*
X502001Y23002D01*
X502028Y22931D01*
X502053Y22858D01*
X502073Y22784D01*
X502090Y22709D01*
X502103Y22633D01*
X502112Y22557D01*
X502118Y22480D01*
X502120Y22403D01*
X502120Y17704D01*
X402971Y55880D02*
X402973Y56065D01*
X402980Y56250D01*
X402991Y56434D01*
X403006Y56618D01*
X403026Y56802D01*
X403050Y56986D01*
X403079Y57168D01*
X403112Y57350D01*
X403149Y57531D01*
X403191Y57711D01*
X403237Y57891D01*
X403287Y58069D01*
X403341Y58245D01*
X403400Y58421D01*
X403462Y58595D01*
X403529Y58767D01*
X403600Y58938D01*
X403675Y59107D01*
X403754Y59274D01*
X403784Y59354D01*
X403817Y59433D01*
X403854Y59510D01*
X403894Y59586D01*
X403937Y59660D01*
X403983Y59732D01*
X404033Y59801D01*
X404085Y59869D01*
X404141Y59934D01*
X404199Y59997D01*
X404261Y60056D01*
X404324Y60114D01*
X404391Y60168D01*
X404459Y60219D01*
X404530Y60267D01*
X404603Y60312D01*
X404677Y60354D01*
X404754Y60392D01*
X404832Y60427D01*
X404911Y60459D01*
X404992Y60487D01*
X405074Y60511D01*
X405158Y60532D01*
X405241Y60549D01*
X405326Y60562D01*
X405411Y60571D01*
X405496Y60577D01*
X405582Y60579D01*
X405668Y60577D01*
X405753Y60571D01*
X405838Y60562D01*
X405923Y60549D01*
X406006Y60532D01*
X406090Y60511D01*
X406172Y60487D01*
X406253Y60459D01*
X406332Y60427D01*
X406410Y60392D01*
X406487Y60354D01*
X406561Y60312D01*
X406634Y60267D01*
X406705Y60219D01*
X406773Y60168D01*
X406840Y60114D01*
X406903Y60056D01*
X406965Y59997D01*
X407023Y59934D01*
X407079Y59869D01*
X407131Y59801D01*
X407181Y59732D01*
X407227Y59660D01*
X407270Y59586D01*
X407310Y59510D01*
X407347Y59433D01*
X407380Y59354D01*
X407410Y59274D01*
X407409Y59274D02*
X407488Y59107D01*
X407563Y58938D01*
X407634Y58767D01*
X407701Y58595D01*
X407763Y58421D01*
X407822Y58245D01*
X407876Y58069D01*
X407926Y57891D01*
X407972Y57711D01*
X408014Y57531D01*
X408051Y57350D01*
X408084Y57168D01*
X408113Y56986D01*
X408137Y56802D01*
X408157Y56618D01*
X408172Y56434D01*
X408183Y56250D01*
X408190Y56065D01*
X408192Y55880D01*
X402971Y55880D02*
X402973Y55695D01*
X402980Y55510D01*
X402991Y55326D01*
X403006Y55142D01*
X403026Y54958D01*
X403050Y54774D01*
X403079Y54592D01*
X403112Y54410D01*
X403149Y54229D01*
X403191Y54049D01*
X403237Y53869D01*
X403287Y53691D01*
X403341Y53515D01*
X403400Y53339D01*
X403462Y53165D01*
X403529Y52993D01*
X403600Y52822D01*
X403675Y52653D01*
X403754Y52486D01*
X403784Y52406D01*
X403817Y52327D01*
X403854Y52250D01*
X403894Y52174D01*
X403937Y52100D01*
X403983Y52028D01*
X404033Y51959D01*
X404086Y51891D01*
X404141Y51826D01*
X404200Y51763D01*
X404261Y51704D01*
X404324Y51646D01*
X404391Y51592D01*
X404459Y51541D01*
X404530Y51493D01*
X404603Y51448D01*
X404677Y51406D01*
X404754Y51368D01*
X404832Y51333D01*
X404911Y51301D01*
X404992Y51273D01*
X405074Y51249D01*
X405158Y51228D01*
X405241Y51211D01*
X405326Y51198D01*
X405411Y51189D01*
X405496Y51183D01*
X405582Y51181D01*
X407409Y52486D02*
X407488Y52653D01*
X407563Y52822D01*
X407634Y52993D01*
X407701Y53165D01*
X407763Y53339D01*
X407822Y53515D01*
X407876Y53691D01*
X407926Y53869D01*
X407972Y54049D01*
X408014Y54229D01*
X408051Y54410D01*
X408084Y54592D01*
X408113Y54774D01*
X408137Y54958D01*
X408157Y55142D01*
X408172Y55326D01*
X408183Y55510D01*
X408190Y55695D01*
X408192Y55880D01*
X407410Y52486D02*
X407380Y52406D01*
X407347Y52327D01*
X407310Y52250D01*
X407270Y52174D01*
X407227Y52100D01*
X407181Y52028D01*
X407131Y51959D01*
X407079Y51891D01*
X407023Y51826D01*
X406965Y51763D01*
X406903Y51704D01*
X406840Y51646D01*
X406773Y51592D01*
X406705Y51541D01*
X406634Y51493D01*
X406561Y51448D01*
X406487Y51406D01*
X406410Y51368D01*
X406332Y51333D01*
X406253Y51301D01*
X406172Y51273D01*
X406090Y51249D01*
X406006Y51228D01*
X405923Y51211D01*
X405838Y51198D01*
X405753Y51189D01*
X405668Y51183D01*
X405582Y51181D01*
X403493Y53269D02*
X407670Y58491D01*
X428371Y58491D02*
X430982Y60579D01*
X430982Y51181D01*
X433592Y51181D02*
X428371Y51181D01*
X456643Y60580D02*
X456738Y60578D01*
X456832Y60572D01*
X456926Y60563D01*
X457020Y60550D01*
X457113Y60533D01*
X457205Y60512D01*
X457297Y60487D01*
X457387Y60459D01*
X457476Y60427D01*
X457564Y60392D01*
X457650Y60353D01*
X457735Y60311D01*
X457818Y60265D01*
X457899Y60216D01*
X457978Y60164D01*
X458055Y60109D01*
X458129Y60050D01*
X458201Y59989D01*
X458271Y59925D01*
X458338Y59858D01*
X458402Y59788D01*
X458463Y59716D01*
X458522Y59642D01*
X458577Y59565D01*
X458629Y59486D01*
X458678Y59405D01*
X458724Y59322D01*
X458766Y59237D01*
X458805Y59151D01*
X458840Y59063D01*
X458872Y58974D01*
X458900Y58884D01*
X458925Y58792D01*
X458946Y58700D01*
X458963Y58607D01*
X458976Y58513D01*
X458985Y58419D01*
X458991Y58325D01*
X458993Y58230D01*
X456643Y60579D02*
X456535Y60577D01*
X456426Y60571D01*
X456318Y60561D01*
X456211Y60548D01*
X456104Y60530D01*
X455997Y60509D01*
X455892Y60484D01*
X455787Y60455D01*
X455684Y60423D01*
X455582Y60386D01*
X455481Y60346D01*
X455382Y60303D01*
X455284Y60256D01*
X455188Y60205D01*
X455094Y60151D01*
X455002Y60094D01*
X454912Y60033D01*
X454824Y59969D01*
X454739Y59903D01*
X454656Y59833D01*
X454576Y59760D01*
X454498Y59684D01*
X454423Y59606D01*
X454351Y59525D01*
X454282Y59441D01*
X454216Y59355D01*
X454153Y59267D01*
X454094Y59176D01*
X454037Y59084D01*
X453984Y58989D01*
X453935Y58893D01*
X453889Y58794D01*
X453846Y58695D01*
X453807Y58593D01*
X453772Y58491D01*
X458209Y56402D02*
X458278Y56471D01*
X458344Y56542D01*
X458408Y56615D01*
X458469Y56691D01*
X458527Y56770D01*
X458581Y56850D01*
X458633Y56933D01*
X458681Y57017D01*
X458727Y57103D01*
X458768Y57191D01*
X458807Y57281D01*
X458842Y57372D01*
X458873Y57464D01*
X458901Y57557D01*
X458925Y57651D01*
X458945Y57746D01*
X458962Y57842D01*
X458975Y57939D01*
X458984Y58036D01*
X458990Y58133D01*
X458992Y58230D01*
X458209Y56402D02*
X453771Y51181D01*
X458992Y51181D01*
X479171Y51181D02*
X481782Y51181D01*
X481883Y51183D01*
X481984Y51189D01*
X482085Y51199D01*
X482185Y51212D01*
X482285Y51230D01*
X482384Y51251D01*
X482482Y51277D01*
X482579Y51306D01*
X482675Y51338D01*
X482769Y51375D01*
X482862Y51415D01*
X482954Y51459D01*
X483043Y51506D01*
X483131Y51557D01*
X483217Y51611D01*
X483300Y51668D01*
X483382Y51728D01*
X483460Y51792D01*
X483537Y51858D01*
X483610Y51928D01*
X483681Y52000D01*
X483749Y52075D01*
X483814Y52153D01*
X483876Y52233D01*
X483935Y52315D01*
X483991Y52400D01*
X484043Y52486D01*
X484092Y52575D01*
X484138Y52666D01*
X484179Y52758D01*
X484218Y52852D01*
X484252Y52947D01*
X484283Y53043D01*
X484310Y53141D01*
X484334Y53239D01*
X484353Y53339D01*
X484369Y53439D01*
X484381Y53539D01*
X484389Y53640D01*
X484393Y53741D01*
X484393Y53843D01*
X484389Y53944D01*
X484381Y54045D01*
X484369Y54145D01*
X484353Y54245D01*
X484334Y54345D01*
X484310Y54443D01*
X484283Y54541D01*
X484252Y54637D01*
X484218Y54732D01*
X484179Y54826D01*
X484138Y54918D01*
X484092Y55009D01*
X484043Y55097D01*
X483991Y55184D01*
X483935Y55269D01*
X483876Y55351D01*
X483814Y55431D01*
X483749Y55509D01*
X483681Y55584D01*
X483610Y55656D01*
X483537Y55726D01*
X483460Y55792D01*
X483382Y55856D01*
X483300Y55916D01*
X483217Y55973D01*
X483131Y56027D01*
X483043Y56078D01*
X482954Y56125D01*
X482862Y56169D01*
X482769Y56209D01*
X482675Y56246D01*
X482579Y56278D01*
X482482Y56307D01*
X482384Y56333D01*
X482285Y56354D01*
X482185Y56372D01*
X482085Y56385D01*
X481984Y56395D01*
X481883Y56401D01*
X481782Y56403D01*
X482304Y60579D02*
X479171Y60579D01*
X482304Y60579D02*
X482394Y60577D01*
X482483Y60571D01*
X482573Y60562D01*
X482662Y60548D01*
X482750Y60531D01*
X482837Y60510D01*
X482924Y60485D01*
X483009Y60456D01*
X483093Y60424D01*
X483175Y60389D01*
X483256Y60349D01*
X483335Y60307D01*
X483412Y60261D01*
X483487Y60211D01*
X483560Y60159D01*
X483631Y60103D01*
X483699Y60045D01*
X483764Y59983D01*
X483827Y59919D01*
X483887Y59852D01*
X483944Y59783D01*
X483998Y59711D01*
X484049Y59637D01*
X484097Y59561D01*
X484141Y59483D01*
X484182Y59403D01*
X484220Y59321D01*
X484254Y59238D01*
X484284Y59153D01*
X484311Y59067D01*
X484334Y58981D01*
X484353Y58893D01*
X484368Y58804D01*
X484380Y58715D01*
X484388Y58626D01*
X484392Y58536D01*
X484392Y58446D01*
X484388Y58356D01*
X484380Y58267D01*
X484368Y58178D01*
X484353Y58089D01*
X484334Y58001D01*
X484311Y57915D01*
X484284Y57829D01*
X484254Y57744D01*
X484220Y57661D01*
X484182Y57579D01*
X484141Y57499D01*
X484097Y57421D01*
X484049Y57345D01*
X483998Y57271D01*
X483944Y57199D01*
X483887Y57130D01*
X483827Y57063D01*
X483764Y56999D01*
X483699Y56937D01*
X483631Y56879D01*
X483560Y56823D01*
X483487Y56771D01*
X483412Y56721D01*
X483335Y56675D01*
X483256Y56633D01*
X483175Y56593D01*
X483093Y56558D01*
X483009Y56526D01*
X482924Y56497D01*
X482837Y56472D01*
X482750Y56451D01*
X482662Y56434D01*
X482573Y56420D01*
X482483Y56411D01*
X482394Y56405D01*
X482304Y56403D01*
X482304Y56402D02*
X480215Y56402D01*
X504571Y53269D02*
X506659Y60579D01*
X504571Y53269D02*
X509792Y53269D01*
X508226Y55358D02*
X508226Y51181D01*
X529971Y51181D02*
X533104Y51181D01*
X533193Y51183D01*
X533281Y51189D01*
X533369Y51198D01*
X533457Y51211D01*
X533544Y51228D01*
X533630Y51248D01*
X533715Y51273D01*
X533800Y51300D01*
X533883Y51332D01*
X533964Y51366D01*
X534044Y51405D01*
X534122Y51446D01*
X534199Y51491D01*
X534273Y51539D01*
X534346Y51590D01*
X534416Y51644D01*
X534483Y51702D01*
X534549Y51762D01*
X534611Y51824D01*
X534671Y51890D01*
X534729Y51957D01*
X534783Y52027D01*
X534834Y52100D01*
X534882Y52174D01*
X534927Y52251D01*
X534968Y52329D01*
X535007Y52409D01*
X535041Y52490D01*
X535073Y52573D01*
X535100Y52658D01*
X535125Y52743D01*
X535145Y52829D01*
X535162Y52916D01*
X535175Y53004D01*
X535184Y53092D01*
X535190Y53180D01*
X535192Y53269D01*
X535192Y54314D01*
X535190Y54403D01*
X535184Y54491D01*
X535175Y54579D01*
X535162Y54667D01*
X535145Y54754D01*
X535125Y54840D01*
X535100Y54925D01*
X535073Y55010D01*
X535041Y55093D01*
X535007Y55174D01*
X534968Y55254D01*
X534927Y55332D01*
X534882Y55409D01*
X534834Y55483D01*
X534783Y55556D01*
X534729Y55626D01*
X534671Y55693D01*
X534611Y55759D01*
X534549Y55821D01*
X534483Y55881D01*
X534416Y55939D01*
X534346Y55993D01*
X534273Y56044D01*
X534199Y56092D01*
X534122Y56137D01*
X534044Y56178D01*
X533964Y56217D01*
X533883Y56251D01*
X533800Y56283D01*
X533715Y56310D01*
X533630Y56335D01*
X533544Y56355D01*
X533457Y56372D01*
X533369Y56385D01*
X533281Y56394D01*
X533193Y56400D01*
X533104Y56402D01*
X529971Y56402D01*
X529971Y60579D01*
X535192Y60579D01*
X116124Y498221D02*
X119257Y507619D01*
X122389Y498221D01*
X121606Y500571D02*
X116907Y500571D01*
X126152Y498221D02*
X126152Y507619D01*
X128762Y507619D01*
X128863Y507617D01*
X128964Y507611D01*
X129065Y507601D01*
X129165Y507588D01*
X129265Y507570D01*
X129364Y507549D01*
X129462Y507523D01*
X129559Y507494D01*
X129655Y507462D01*
X129749Y507425D01*
X129842Y507385D01*
X129934Y507341D01*
X130023Y507294D01*
X130111Y507243D01*
X130197Y507189D01*
X130280Y507132D01*
X130362Y507072D01*
X130440Y507008D01*
X130517Y506942D01*
X130590Y506872D01*
X130661Y506800D01*
X130729Y506725D01*
X130794Y506647D01*
X130856Y506567D01*
X130915Y506485D01*
X130971Y506400D01*
X131023Y506313D01*
X131072Y506225D01*
X131118Y506134D01*
X131159Y506042D01*
X131198Y505948D01*
X131232Y505853D01*
X131263Y505757D01*
X131290Y505659D01*
X131314Y505561D01*
X131333Y505461D01*
X131349Y505361D01*
X131361Y505261D01*
X131369Y505160D01*
X131373Y505059D01*
X131373Y504957D01*
X131369Y504856D01*
X131361Y504755D01*
X131349Y504655D01*
X131333Y504555D01*
X131314Y504455D01*
X131290Y504357D01*
X131263Y504259D01*
X131232Y504163D01*
X131198Y504068D01*
X131159Y503974D01*
X131118Y503882D01*
X131072Y503791D01*
X131023Y503703D01*
X130971Y503616D01*
X130915Y503531D01*
X130856Y503449D01*
X130794Y503369D01*
X130729Y503291D01*
X130661Y503216D01*
X130590Y503144D01*
X130517Y503074D01*
X130440Y503008D01*
X130362Y502944D01*
X130280Y502884D01*
X130197Y502827D01*
X130111Y502773D01*
X130023Y502722D01*
X129934Y502675D01*
X129842Y502631D01*
X129749Y502591D01*
X129655Y502554D01*
X129559Y502522D01*
X129462Y502493D01*
X129364Y502467D01*
X129265Y502446D01*
X129165Y502428D01*
X129065Y502415D01*
X128964Y502405D01*
X128863Y502399D01*
X128762Y502397D01*
X128762Y502398D02*
X126152Y502398D01*
X129284Y502398D02*
X131373Y498221D01*
X136718Y498221D02*
X139328Y498221D01*
X136718Y498221D02*
X136641Y498223D01*
X136565Y498229D01*
X136488Y498238D01*
X136412Y498251D01*
X136337Y498268D01*
X136263Y498288D01*
X136190Y498313D01*
X136119Y498340D01*
X136048Y498371D01*
X135980Y498406D01*
X135913Y498444D01*
X135848Y498485D01*
X135785Y498529D01*
X135725Y498576D01*
X135666Y498627D01*
X135611Y498680D01*
X135558Y498735D01*
X135507Y498794D01*
X135460Y498854D01*
X135416Y498917D01*
X135375Y498982D01*
X135337Y499049D01*
X135302Y499117D01*
X135271Y499188D01*
X135244Y499259D01*
X135219Y499332D01*
X135199Y499406D01*
X135182Y499481D01*
X135169Y499557D01*
X135160Y499634D01*
X135154Y499710D01*
X135152Y499787D01*
X135151Y499787D02*
X135151Y502398D01*
X135152Y502398D02*
X135154Y502488D01*
X135160Y502577D01*
X135169Y502667D01*
X135183Y502756D01*
X135200Y502844D01*
X135221Y502931D01*
X135246Y503018D01*
X135275Y503103D01*
X135307Y503187D01*
X135342Y503269D01*
X135382Y503350D01*
X135424Y503429D01*
X135470Y503506D01*
X135520Y503581D01*
X135572Y503654D01*
X135628Y503725D01*
X135686Y503793D01*
X135748Y503858D01*
X135812Y503921D01*
X135879Y503981D01*
X135948Y504038D01*
X136020Y504092D01*
X136094Y504143D01*
X136170Y504191D01*
X136248Y504235D01*
X136328Y504276D01*
X136410Y504314D01*
X136493Y504348D01*
X136578Y504378D01*
X136664Y504405D01*
X136750Y504428D01*
X136838Y504447D01*
X136927Y504462D01*
X137016Y504474D01*
X137105Y504482D01*
X137195Y504486D01*
X137285Y504486D01*
X137375Y504482D01*
X137464Y504474D01*
X137553Y504462D01*
X137642Y504447D01*
X137730Y504428D01*
X137816Y504405D01*
X137902Y504378D01*
X137987Y504348D01*
X138070Y504314D01*
X138152Y504276D01*
X138232Y504235D01*
X138310Y504191D01*
X138386Y504143D01*
X138460Y504092D01*
X138532Y504038D01*
X138601Y503981D01*
X138668Y503921D01*
X138732Y503858D01*
X138794Y503793D01*
X138852Y503725D01*
X138908Y503654D01*
X138960Y503581D01*
X139010Y503506D01*
X139056Y503429D01*
X139098Y503350D01*
X139138Y503269D01*
X139173Y503187D01*
X139205Y503103D01*
X139234Y503018D01*
X139259Y502931D01*
X139280Y502844D01*
X139297Y502756D01*
X139311Y502667D01*
X139320Y502577D01*
X139326Y502488D01*
X139328Y502398D01*
X139328Y501354D01*
X135151Y501354D01*
X143581Y498221D02*
X143581Y506053D01*
X143583Y506130D01*
X143589Y506206D01*
X143598Y506283D01*
X143611Y506359D01*
X143628Y506434D01*
X143648Y506508D01*
X143673Y506581D01*
X143700Y506652D01*
X143731Y506723D01*
X143766Y506791D01*
X143804Y506858D01*
X143845Y506923D01*
X143889Y506986D01*
X143936Y507046D01*
X143987Y507105D01*
X144040Y507160D01*
X144095Y507213D01*
X144154Y507264D01*
X144214Y507311D01*
X144277Y507355D01*
X144342Y507396D01*
X144409Y507434D01*
X144477Y507469D01*
X144548Y507500D01*
X144619Y507527D01*
X144692Y507552D01*
X144766Y507572D01*
X144841Y507589D01*
X144917Y507602D01*
X144993Y507611D01*
X145070Y507617D01*
X145147Y507619D01*
X145669Y507619D01*
X145669Y504486D02*
X142536Y504486D01*
X158045Y498221D02*
X160655Y498221D01*
X158045Y498221D02*
X157968Y498223D01*
X157892Y498229D01*
X157815Y498238D01*
X157739Y498251D01*
X157664Y498268D01*
X157590Y498288D01*
X157517Y498313D01*
X157446Y498340D01*
X157375Y498371D01*
X157307Y498406D01*
X157240Y498444D01*
X157175Y498485D01*
X157112Y498529D01*
X157052Y498576D01*
X156993Y498627D01*
X156938Y498680D01*
X156885Y498735D01*
X156834Y498794D01*
X156787Y498854D01*
X156743Y498917D01*
X156702Y498982D01*
X156664Y499049D01*
X156629Y499117D01*
X156598Y499188D01*
X156571Y499259D01*
X156546Y499332D01*
X156526Y499406D01*
X156509Y499481D01*
X156496Y499557D01*
X156487Y499634D01*
X156481Y499710D01*
X156479Y499787D01*
X156478Y499787D02*
X156478Y502920D01*
X156479Y502920D02*
X156481Y502997D01*
X156487Y503073D01*
X156496Y503150D01*
X156509Y503226D01*
X156526Y503301D01*
X156546Y503375D01*
X156571Y503448D01*
X156598Y503519D01*
X156629Y503590D01*
X156664Y503658D01*
X156702Y503725D01*
X156743Y503790D01*
X156787Y503853D01*
X156834Y503913D01*
X156885Y503972D01*
X156938Y504027D01*
X156993Y504080D01*
X157052Y504131D01*
X157112Y504178D01*
X157175Y504222D01*
X157240Y504263D01*
X157307Y504301D01*
X157375Y504336D01*
X157446Y504367D01*
X157517Y504394D01*
X157590Y504419D01*
X157664Y504439D01*
X157739Y504456D01*
X157815Y504469D01*
X157892Y504478D01*
X157968Y504484D01*
X158045Y504486D01*
X160655Y504486D01*
X160655Y496655D01*
X160653Y496578D01*
X160647Y496502D01*
X160638Y496425D01*
X160625Y496349D01*
X160608Y496274D01*
X160588Y496200D01*
X160563Y496127D01*
X160536Y496056D01*
X160505Y495985D01*
X160470Y495917D01*
X160432Y495850D01*
X160391Y495785D01*
X160347Y495722D01*
X160300Y495662D01*
X160249Y495603D01*
X160196Y495548D01*
X160141Y495495D01*
X160082Y495444D01*
X160022Y495397D01*
X159959Y495353D01*
X159894Y495312D01*
X159827Y495274D01*
X159759Y495239D01*
X159688Y495208D01*
X159617Y495181D01*
X159544Y495156D01*
X159470Y495136D01*
X159395Y495119D01*
X159319Y495106D01*
X159243Y495097D01*
X159166Y495091D01*
X159089Y495089D01*
X159089Y495088D02*
X157000Y495088D01*
X165058Y498221D02*
X165058Y504486D01*
X167669Y504486D01*
X167746Y504484D01*
X167822Y504478D01*
X167899Y504469D01*
X167975Y504456D01*
X168050Y504439D01*
X168124Y504419D01*
X168197Y504394D01*
X168268Y504367D01*
X168339Y504336D01*
X168407Y504301D01*
X168474Y504263D01*
X168539Y504222D01*
X168602Y504178D01*
X168662Y504131D01*
X168721Y504080D01*
X168776Y504027D01*
X168829Y503972D01*
X168880Y503913D01*
X168927Y503853D01*
X168971Y503790D01*
X169012Y503725D01*
X169050Y503658D01*
X169085Y503590D01*
X169116Y503519D01*
X169143Y503448D01*
X169168Y503375D01*
X169188Y503301D01*
X169205Y503226D01*
X169218Y503150D01*
X169227Y503074D01*
X169233Y502997D01*
X169235Y502920D01*
X169235Y498221D01*
X177419Y498221D02*
X177419Y507619D01*
X177419Y498221D02*
X174808Y498221D01*
X174731Y498223D01*
X174655Y498229D01*
X174578Y498238D01*
X174502Y498251D01*
X174427Y498268D01*
X174353Y498288D01*
X174280Y498313D01*
X174209Y498340D01*
X174138Y498371D01*
X174070Y498406D01*
X174003Y498444D01*
X173938Y498485D01*
X173875Y498529D01*
X173815Y498576D01*
X173756Y498627D01*
X173701Y498680D01*
X173648Y498735D01*
X173597Y498794D01*
X173550Y498854D01*
X173506Y498917D01*
X173465Y498982D01*
X173427Y499049D01*
X173392Y499117D01*
X173361Y499188D01*
X173334Y499259D01*
X173309Y499332D01*
X173289Y499406D01*
X173272Y499481D01*
X173259Y499557D01*
X173250Y499634D01*
X173244Y499710D01*
X173242Y499787D01*
X173242Y502920D01*
X173244Y502997D01*
X173250Y503073D01*
X173259Y503150D01*
X173272Y503226D01*
X173289Y503301D01*
X173309Y503375D01*
X173334Y503448D01*
X173361Y503519D01*
X173392Y503590D01*
X173427Y503658D01*
X173465Y503725D01*
X173506Y503790D01*
X173550Y503853D01*
X173597Y503913D01*
X173648Y503972D01*
X173701Y504027D01*
X173756Y504080D01*
X173815Y504131D01*
X173875Y504178D01*
X173938Y504222D01*
X174003Y504263D01*
X174070Y504301D01*
X174138Y504336D01*
X174209Y504367D01*
X174280Y504394D01*
X174353Y504419D01*
X174427Y504439D01*
X174502Y504456D01*
X174578Y504469D01*
X174655Y504478D01*
X174731Y504484D01*
X174808Y504486D01*
X177419Y504486D01*
X184644Y505531D02*
X187254Y507619D01*
X187254Y498221D01*
X184644Y498221D02*
X189865Y498221D01*
X193788Y498221D02*
X196398Y498221D01*
X196499Y498223D01*
X196600Y498229D01*
X196701Y498239D01*
X196801Y498252D01*
X196901Y498270D01*
X197000Y498291D01*
X197098Y498317D01*
X197195Y498346D01*
X197291Y498378D01*
X197385Y498415D01*
X197478Y498455D01*
X197570Y498499D01*
X197659Y498546D01*
X197747Y498597D01*
X197833Y498651D01*
X197916Y498708D01*
X197998Y498768D01*
X198076Y498832D01*
X198153Y498898D01*
X198226Y498968D01*
X198297Y499040D01*
X198365Y499115D01*
X198430Y499193D01*
X198492Y499273D01*
X198551Y499355D01*
X198607Y499440D01*
X198659Y499527D01*
X198708Y499615D01*
X198754Y499706D01*
X198795Y499798D01*
X198834Y499892D01*
X198868Y499987D01*
X198899Y500083D01*
X198926Y500181D01*
X198950Y500279D01*
X198969Y500379D01*
X198985Y500479D01*
X198997Y500579D01*
X199005Y500680D01*
X199009Y500781D01*
X199009Y500883D01*
X199005Y500984D01*
X198997Y501085D01*
X198985Y501185D01*
X198969Y501285D01*
X198950Y501385D01*
X198926Y501483D01*
X198899Y501581D01*
X198868Y501677D01*
X198834Y501772D01*
X198795Y501866D01*
X198754Y501958D01*
X198708Y502049D01*
X198659Y502137D01*
X198607Y502224D01*
X198551Y502309D01*
X198492Y502391D01*
X198430Y502471D01*
X198365Y502549D01*
X198297Y502624D01*
X198226Y502696D01*
X198153Y502766D01*
X198076Y502832D01*
X197998Y502896D01*
X197916Y502956D01*
X197833Y503013D01*
X197747Y503067D01*
X197659Y503118D01*
X197570Y503165D01*
X197478Y503209D01*
X197385Y503249D01*
X197291Y503286D01*
X197195Y503318D01*
X197098Y503347D01*
X197000Y503373D01*
X196901Y503394D01*
X196801Y503412D01*
X196701Y503425D01*
X196600Y503435D01*
X196499Y503441D01*
X196398Y503443D01*
X196921Y507619D02*
X193788Y507619D01*
X196921Y507619D02*
X197011Y507617D01*
X197100Y507611D01*
X197190Y507602D01*
X197279Y507588D01*
X197367Y507571D01*
X197454Y507550D01*
X197541Y507525D01*
X197626Y507496D01*
X197710Y507464D01*
X197792Y507429D01*
X197873Y507389D01*
X197952Y507347D01*
X198029Y507301D01*
X198104Y507251D01*
X198177Y507199D01*
X198248Y507143D01*
X198316Y507085D01*
X198381Y507023D01*
X198444Y506959D01*
X198504Y506892D01*
X198561Y506823D01*
X198615Y506751D01*
X198666Y506677D01*
X198714Y506601D01*
X198758Y506523D01*
X198799Y506443D01*
X198837Y506361D01*
X198871Y506278D01*
X198901Y506193D01*
X198928Y506107D01*
X198951Y506021D01*
X198970Y505933D01*
X198985Y505844D01*
X198997Y505755D01*
X199005Y505666D01*
X199009Y505576D01*
X199009Y505486D01*
X199005Y505396D01*
X198997Y505307D01*
X198985Y505218D01*
X198970Y505129D01*
X198951Y505041D01*
X198928Y504955D01*
X198901Y504869D01*
X198871Y504784D01*
X198837Y504701D01*
X198799Y504619D01*
X198758Y504539D01*
X198714Y504461D01*
X198666Y504385D01*
X198615Y504311D01*
X198561Y504239D01*
X198504Y504170D01*
X198444Y504103D01*
X198381Y504039D01*
X198316Y503977D01*
X198248Y503919D01*
X198177Y503863D01*
X198104Y503811D01*
X198029Y503761D01*
X197952Y503715D01*
X197873Y503673D01*
X197792Y503633D01*
X197710Y503598D01*
X197626Y503566D01*
X197541Y503537D01*
X197454Y503512D01*
X197367Y503491D01*
X197279Y503474D01*
X197190Y503460D01*
X197100Y503451D01*
X197011Y503445D01*
X196921Y503443D01*
X196921Y503442D02*
X194832Y503442D01*
X210044Y505531D02*
X212654Y507619D01*
X212654Y498221D01*
X210044Y498221D02*
X215265Y498221D01*
X224410Y505270D02*
X224408Y505365D01*
X224402Y505459D01*
X224393Y505553D01*
X224380Y505647D01*
X224363Y505740D01*
X224342Y505832D01*
X224317Y505924D01*
X224289Y506014D01*
X224257Y506103D01*
X224222Y506191D01*
X224183Y506277D01*
X224141Y506362D01*
X224095Y506445D01*
X224046Y506526D01*
X223994Y506605D01*
X223939Y506682D01*
X223880Y506756D01*
X223819Y506828D01*
X223755Y506898D01*
X223688Y506965D01*
X223618Y507029D01*
X223546Y507090D01*
X223472Y507149D01*
X223395Y507204D01*
X223316Y507256D01*
X223235Y507305D01*
X223152Y507351D01*
X223067Y507393D01*
X222981Y507432D01*
X222893Y507467D01*
X222804Y507499D01*
X222714Y507527D01*
X222622Y507552D01*
X222530Y507573D01*
X222437Y507590D01*
X222343Y507603D01*
X222249Y507612D01*
X222155Y507618D01*
X222060Y507620D01*
X222060Y507619D02*
X221952Y507617D01*
X221843Y507611D01*
X221735Y507601D01*
X221628Y507588D01*
X221521Y507570D01*
X221414Y507549D01*
X221309Y507524D01*
X221204Y507495D01*
X221101Y507463D01*
X220999Y507426D01*
X220898Y507386D01*
X220799Y507343D01*
X220701Y507296D01*
X220605Y507245D01*
X220511Y507191D01*
X220419Y507134D01*
X220329Y507073D01*
X220241Y507009D01*
X220156Y506943D01*
X220073Y506873D01*
X219993Y506800D01*
X219915Y506724D01*
X219840Y506646D01*
X219768Y506565D01*
X219699Y506481D01*
X219633Y506395D01*
X219570Y506307D01*
X219511Y506216D01*
X219454Y506124D01*
X219401Y506029D01*
X219352Y505933D01*
X219306Y505834D01*
X219263Y505735D01*
X219224Y505633D01*
X219189Y505531D01*
X223626Y503442D02*
X223695Y503511D01*
X223761Y503582D01*
X223825Y503655D01*
X223886Y503731D01*
X223944Y503810D01*
X223998Y503890D01*
X224050Y503973D01*
X224098Y504057D01*
X224144Y504143D01*
X224185Y504231D01*
X224224Y504321D01*
X224259Y504412D01*
X224290Y504504D01*
X224318Y504597D01*
X224342Y504691D01*
X224362Y504786D01*
X224379Y504882D01*
X224392Y504979D01*
X224401Y505076D01*
X224407Y505173D01*
X224409Y505270D01*
X223626Y503442D02*
X219188Y498221D01*
X224409Y498221D01*
X235444Y505531D02*
X238054Y507619D01*
X238054Y498221D01*
X235444Y498221D02*
X240665Y498221D01*
X244588Y505531D02*
X247198Y507619D01*
X247198Y498221D01*
X244588Y498221D02*
X249809Y498221D01*
X260844Y505531D02*
X263454Y507619D01*
X263454Y498221D01*
X260844Y498221D02*
X266065Y498221D01*
X269988Y502920D02*
X269990Y503105D01*
X269997Y503290D01*
X270008Y503474D01*
X270023Y503658D01*
X270043Y503842D01*
X270067Y504026D01*
X270096Y504208D01*
X270129Y504390D01*
X270166Y504571D01*
X270208Y504751D01*
X270254Y504931D01*
X270304Y505109D01*
X270358Y505285D01*
X270417Y505461D01*
X270479Y505635D01*
X270546Y505807D01*
X270617Y505978D01*
X270692Y506147D01*
X270771Y506314D01*
X270770Y506314D02*
X270800Y506394D01*
X270833Y506473D01*
X270870Y506550D01*
X270910Y506626D01*
X270953Y506700D01*
X270999Y506772D01*
X271049Y506841D01*
X271101Y506909D01*
X271157Y506974D01*
X271215Y507037D01*
X271277Y507096D01*
X271340Y507154D01*
X271407Y507208D01*
X271475Y507259D01*
X271546Y507307D01*
X271619Y507352D01*
X271693Y507394D01*
X271770Y507432D01*
X271848Y507467D01*
X271927Y507499D01*
X272008Y507527D01*
X272090Y507551D01*
X272174Y507572D01*
X272257Y507589D01*
X272342Y507602D01*
X272427Y507611D01*
X272512Y507617D01*
X272598Y507619D01*
X272684Y507617D01*
X272769Y507611D01*
X272854Y507602D01*
X272939Y507589D01*
X273022Y507572D01*
X273106Y507551D01*
X273188Y507527D01*
X273269Y507499D01*
X273348Y507467D01*
X273426Y507432D01*
X273503Y507394D01*
X273577Y507352D01*
X273650Y507307D01*
X273721Y507259D01*
X273789Y507208D01*
X273856Y507154D01*
X273919Y507096D01*
X273981Y507037D01*
X274039Y506974D01*
X274095Y506909D01*
X274147Y506841D01*
X274197Y506772D01*
X274243Y506700D01*
X274286Y506626D01*
X274326Y506550D01*
X274363Y506473D01*
X274396Y506394D01*
X274426Y506314D01*
X274505Y506147D01*
X274580Y505978D01*
X274651Y505807D01*
X274718Y505635D01*
X274780Y505461D01*
X274839Y505285D01*
X274893Y505109D01*
X274943Y504931D01*
X274989Y504751D01*
X275031Y504571D01*
X275068Y504390D01*
X275101Y504208D01*
X275130Y504026D01*
X275154Y503842D01*
X275174Y503658D01*
X275189Y503474D01*
X275200Y503290D01*
X275207Y503105D01*
X275209Y502920D01*
X269988Y502920D02*
X269990Y502735D01*
X269997Y502550D01*
X270008Y502366D01*
X270023Y502182D01*
X270043Y501998D01*
X270067Y501814D01*
X270096Y501632D01*
X270129Y501450D01*
X270166Y501269D01*
X270208Y501089D01*
X270254Y500909D01*
X270304Y500731D01*
X270358Y500555D01*
X270417Y500379D01*
X270479Y500205D01*
X270546Y500033D01*
X270617Y499862D01*
X270692Y499693D01*
X270771Y499526D01*
X270770Y499526D02*
X270800Y499446D01*
X270833Y499367D01*
X270870Y499290D01*
X270910Y499214D01*
X270953Y499140D01*
X270999Y499068D01*
X271049Y498999D01*
X271102Y498931D01*
X271157Y498866D01*
X271216Y498803D01*
X271277Y498744D01*
X271340Y498686D01*
X271407Y498632D01*
X271475Y498581D01*
X271546Y498533D01*
X271619Y498488D01*
X271693Y498446D01*
X271770Y498408D01*
X271848Y498373D01*
X271927Y498341D01*
X272008Y498313D01*
X272090Y498289D01*
X272174Y498268D01*
X272257Y498251D01*
X272342Y498238D01*
X272427Y498229D01*
X272512Y498223D01*
X272598Y498221D01*
X274426Y499526D02*
X274505Y499693D01*
X274580Y499862D01*
X274651Y500033D01*
X274718Y500205D01*
X274780Y500379D01*
X274839Y500555D01*
X274893Y500731D01*
X274943Y500909D01*
X274989Y501089D01*
X275031Y501269D01*
X275068Y501450D01*
X275101Y501632D01*
X275130Y501814D01*
X275154Y501998D01*
X275174Y502182D01*
X275189Y502366D01*
X275200Y502550D01*
X275207Y502735D01*
X275209Y502920D01*
X274426Y499526D02*
X274396Y499446D01*
X274363Y499367D01*
X274326Y499290D01*
X274286Y499214D01*
X274243Y499140D01*
X274197Y499068D01*
X274147Y498999D01*
X274095Y498931D01*
X274039Y498866D01*
X273981Y498803D01*
X273919Y498744D01*
X273856Y498686D01*
X273789Y498632D01*
X273721Y498581D01*
X273650Y498533D01*
X273577Y498488D01*
X273503Y498446D01*
X273426Y498408D01*
X273348Y498373D01*
X273269Y498341D01*
X273188Y498313D01*
X273106Y498289D01*
X273022Y498268D01*
X272939Y498251D01*
X272854Y498238D01*
X272769Y498229D01*
X272684Y498223D01*
X272598Y498221D01*
X270510Y500309D02*
X274687Y505531D01*
X292396Y502398D02*
X295529Y502398D01*
X292396Y502398D02*
X292307Y502400D01*
X292219Y502406D01*
X292131Y502415D01*
X292043Y502428D01*
X291956Y502445D01*
X291870Y502465D01*
X291785Y502490D01*
X291700Y502517D01*
X291617Y502549D01*
X291536Y502583D01*
X291456Y502622D01*
X291378Y502663D01*
X291301Y502708D01*
X291227Y502756D01*
X291154Y502807D01*
X291084Y502861D01*
X291017Y502919D01*
X290951Y502979D01*
X290889Y503041D01*
X290829Y503107D01*
X290771Y503174D01*
X290717Y503244D01*
X290666Y503317D01*
X290618Y503391D01*
X290573Y503468D01*
X290532Y503546D01*
X290493Y503626D01*
X290459Y503707D01*
X290427Y503790D01*
X290400Y503875D01*
X290375Y503960D01*
X290355Y504046D01*
X290338Y504133D01*
X290325Y504221D01*
X290316Y504309D01*
X290310Y504397D01*
X290308Y504486D01*
X290308Y505008D01*
X290307Y505008D02*
X290309Y505109D01*
X290315Y505210D01*
X290325Y505311D01*
X290338Y505411D01*
X290356Y505511D01*
X290377Y505610D01*
X290403Y505708D01*
X290432Y505805D01*
X290464Y505901D01*
X290501Y505995D01*
X290541Y506088D01*
X290585Y506180D01*
X290632Y506269D01*
X290683Y506357D01*
X290737Y506443D01*
X290794Y506526D01*
X290854Y506608D01*
X290918Y506686D01*
X290984Y506763D01*
X291054Y506836D01*
X291126Y506907D01*
X291201Y506975D01*
X291279Y507040D01*
X291359Y507102D01*
X291441Y507161D01*
X291526Y507217D01*
X291613Y507269D01*
X291701Y507318D01*
X291792Y507364D01*
X291884Y507405D01*
X291978Y507444D01*
X292073Y507478D01*
X292169Y507509D01*
X292267Y507536D01*
X292365Y507560D01*
X292465Y507579D01*
X292565Y507595D01*
X292665Y507607D01*
X292766Y507615D01*
X292867Y507619D01*
X292969Y507619D01*
X293070Y507615D01*
X293171Y507607D01*
X293271Y507595D01*
X293371Y507579D01*
X293471Y507560D01*
X293569Y507536D01*
X293667Y507509D01*
X293763Y507478D01*
X293858Y507444D01*
X293952Y507405D01*
X294044Y507364D01*
X294135Y507318D01*
X294224Y507269D01*
X294310Y507217D01*
X294395Y507161D01*
X294477Y507102D01*
X294557Y507040D01*
X294635Y506975D01*
X294710Y506907D01*
X294782Y506836D01*
X294852Y506763D01*
X294918Y506686D01*
X294982Y506608D01*
X295042Y506526D01*
X295099Y506443D01*
X295153Y506357D01*
X295204Y506269D01*
X295251Y506180D01*
X295295Y506088D01*
X295335Y505995D01*
X295372Y505901D01*
X295404Y505805D01*
X295433Y505708D01*
X295459Y505610D01*
X295480Y505511D01*
X295498Y505411D01*
X295511Y505311D01*
X295521Y505210D01*
X295527Y505109D01*
X295529Y505008D01*
X295529Y502398D01*
X295527Y502272D01*
X295521Y502146D01*
X295512Y502020D01*
X295499Y501895D01*
X295481Y501770D01*
X295461Y501645D01*
X295436Y501521D01*
X295408Y501398D01*
X295376Y501276D01*
X295340Y501155D01*
X295301Y501035D01*
X295258Y500917D01*
X295211Y500800D01*
X295161Y500684D01*
X295107Y500569D01*
X295051Y500457D01*
X294990Y500346D01*
X294927Y500237D01*
X294860Y500130D01*
X294790Y500025D01*
X294716Y499922D01*
X294640Y499822D01*
X294561Y499724D01*
X294479Y499628D01*
X294393Y499535D01*
X294306Y499444D01*
X294215Y499357D01*
X294122Y499271D01*
X294026Y499189D01*
X293928Y499110D01*
X293828Y499034D01*
X293725Y498960D01*
X293620Y498890D01*
X293513Y498823D01*
X293404Y498760D01*
X293293Y498699D01*
X293181Y498643D01*
X293066Y498589D01*
X292950Y498539D01*
X292833Y498492D01*
X292715Y498449D01*
X292595Y498410D01*
X292474Y498374D01*
X292352Y498342D01*
X292229Y498314D01*
X292105Y498289D01*
X291980Y498269D01*
X291855Y498251D01*
X291730Y498238D01*
X291604Y498229D01*
X291478Y498223D01*
X291352Y498221D01*
X315707Y500832D02*
X315709Y500933D01*
X315715Y501034D01*
X315725Y501135D01*
X315738Y501235D01*
X315756Y501335D01*
X315777Y501434D01*
X315803Y501532D01*
X315832Y501629D01*
X315864Y501725D01*
X315901Y501819D01*
X315941Y501912D01*
X315985Y502004D01*
X316032Y502093D01*
X316083Y502181D01*
X316137Y502267D01*
X316194Y502350D01*
X316254Y502432D01*
X316318Y502510D01*
X316384Y502587D01*
X316454Y502660D01*
X316526Y502731D01*
X316601Y502799D01*
X316679Y502864D01*
X316759Y502926D01*
X316841Y502985D01*
X316926Y503041D01*
X317013Y503093D01*
X317101Y503142D01*
X317192Y503188D01*
X317284Y503229D01*
X317378Y503268D01*
X317473Y503302D01*
X317569Y503333D01*
X317667Y503360D01*
X317765Y503384D01*
X317865Y503403D01*
X317965Y503419D01*
X318065Y503431D01*
X318166Y503439D01*
X318267Y503443D01*
X318369Y503443D01*
X318470Y503439D01*
X318571Y503431D01*
X318671Y503419D01*
X318771Y503403D01*
X318871Y503384D01*
X318969Y503360D01*
X319067Y503333D01*
X319163Y503302D01*
X319258Y503268D01*
X319352Y503229D01*
X319444Y503188D01*
X319535Y503142D01*
X319624Y503093D01*
X319710Y503041D01*
X319795Y502985D01*
X319877Y502926D01*
X319957Y502864D01*
X320035Y502799D01*
X320110Y502731D01*
X320182Y502660D01*
X320252Y502587D01*
X320318Y502510D01*
X320382Y502432D01*
X320442Y502350D01*
X320499Y502267D01*
X320553Y502181D01*
X320604Y502093D01*
X320651Y502004D01*
X320695Y501912D01*
X320735Y501819D01*
X320772Y501725D01*
X320804Y501629D01*
X320833Y501532D01*
X320859Y501434D01*
X320880Y501335D01*
X320898Y501235D01*
X320911Y501135D01*
X320921Y501034D01*
X320927Y500933D01*
X320929Y500832D01*
X320927Y500731D01*
X320921Y500630D01*
X320911Y500529D01*
X320898Y500429D01*
X320880Y500329D01*
X320859Y500230D01*
X320833Y500132D01*
X320804Y500035D01*
X320772Y499939D01*
X320735Y499845D01*
X320695Y499752D01*
X320651Y499660D01*
X320604Y499571D01*
X320553Y499483D01*
X320499Y499397D01*
X320442Y499314D01*
X320382Y499232D01*
X320318Y499154D01*
X320252Y499077D01*
X320182Y499004D01*
X320110Y498933D01*
X320035Y498865D01*
X319957Y498800D01*
X319877Y498738D01*
X319795Y498679D01*
X319710Y498623D01*
X319623Y498571D01*
X319535Y498522D01*
X319444Y498476D01*
X319352Y498435D01*
X319258Y498396D01*
X319163Y498362D01*
X319067Y498331D01*
X318969Y498304D01*
X318871Y498280D01*
X318771Y498261D01*
X318671Y498245D01*
X318571Y498233D01*
X318470Y498225D01*
X318369Y498221D01*
X318267Y498221D01*
X318166Y498225D01*
X318065Y498233D01*
X317965Y498245D01*
X317865Y498261D01*
X317765Y498280D01*
X317667Y498304D01*
X317569Y498331D01*
X317473Y498362D01*
X317378Y498396D01*
X317284Y498435D01*
X317192Y498476D01*
X317101Y498522D01*
X317013Y498571D01*
X316926Y498623D01*
X316841Y498679D01*
X316759Y498738D01*
X316679Y498800D01*
X316601Y498865D01*
X316526Y498933D01*
X316454Y499004D01*
X316384Y499077D01*
X316318Y499154D01*
X316254Y499232D01*
X316194Y499314D01*
X316137Y499397D01*
X316083Y499483D01*
X316032Y499571D01*
X315985Y499660D01*
X315941Y499752D01*
X315901Y499845D01*
X315864Y499939D01*
X315832Y500035D01*
X315803Y500132D01*
X315777Y500230D01*
X315756Y500329D01*
X315738Y500429D01*
X315725Y500529D01*
X315715Y500630D01*
X315709Y500731D01*
X315707Y500832D01*
X316230Y505531D02*
X316232Y505621D01*
X316238Y505710D01*
X316247Y505800D01*
X316261Y505889D01*
X316278Y505977D01*
X316299Y506064D01*
X316324Y506151D01*
X316353Y506236D01*
X316385Y506320D01*
X316420Y506402D01*
X316460Y506483D01*
X316502Y506562D01*
X316548Y506639D01*
X316598Y506714D01*
X316650Y506787D01*
X316706Y506858D01*
X316764Y506926D01*
X316826Y506991D01*
X316890Y507054D01*
X316957Y507114D01*
X317026Y507171D01*
X317098Y507225D01*
X317172Y507276D01*
X317248Y507324D01*
X317326Y507368D01*
X317406Y507409D01*
X317488Y507447D01*
X317571Y507481D01*
X317656Y507511D01*
X317742Y507538D01*
X317828Y507561D01*
X317916Y507580D01*
X318005Y507595D01*
X318094Y507607D01*
X318183Y507615D01*
X318273Y507619D01*
X318363Y507619D01*
X318453Y507615D01*
X318542Y507607D01*
X318631Y507595D01*
X318720Y507580D01*
X318808Y507561D01*
X318894Y507538D01*
X318980Y507511D01*
X319065Y507481D01*
X319148Y507447D01*
X319230Y507409D01*
X319310Y507368D01*
X319388Y507324D01*
X319464Y507276D01*
X319538Y507225D01*
X319610Y507171D01*
X319679Y507114D01*
X319746Y507054D01*
X319810Y506991D01*
X319872Y506926D01*
X319930Y506858D01*
X319986Y506787D01*
X320038Y506714D01*
X320088Y506639D01*
X320134Y506562D01*
X320176Y506483D01*
X320216Y506402D01*
X320251Y506320D01*
X320283Y506236D01*
X320312Y506151D01*
X320337Y506064D01*
X320358Y505977D01*
X320375Y505889D01*
X320389Y505800D01*
X320398Y505710D01*
X320404Y505621D01*
X320406Y505531D01*
X320404Y505441D01*
X320398Y505352D01*
X320389Y505262D01*
X320375Y505173D01*
X320358Y505085D01*
X320337Y504998D01*
X320312Y504911D01*
X320283Y504826D01*
X320251Y504742D01*
X320216Y504660D01*
X320176Y504579D01*
X320134Y504500D01*
X320088Y504423D01*
X320038Y504348D01*
X319986Y504275D01*
X319930Y504204D01*
X319872Y504136D01*
X319810Y504071D01*
X319746Y504008D01*
X319679Y503948D01*
X319610Y503891D01*
X319538Y503837D01*
X319464Y503786D01*
X319388Y503738D01*
X319310Y503694D01*
X319230Y503653D01*
X319148Y503615D01*
X319065Y503581D01*
X318980Y503551D01*
X318894Y503524D01*
X318808Y503501D01*
X318720Y503482D01*
X318631Y503467D01*
X318542Y503455D01*
X318453Y503447D01*
X318363Y503443D01*
X318273Y503443D01*
X318183Y503447D01*
X318094Y503455D01*
X318005Y503467D01*
X317916Y503482D01*
X317828Y503501D01*
X317742Y503524D01*
X317656Y503551D01*
X317571Y503581D01*
X317488Y503615D01*
X317406Y503653D01*
X317326Y503694D01*
X317248Y503738D01*
X317172Y503786D01*
X317098Y503837D01*
X317026Y503891D01*
X316957Y503948D01*
X316890Y504008D01*
X316826Y504071D01*
X316764Y504136D01*
X316706Y504204D01*
X316650Y504275D01*
X316598Y504348D01*
X316548Y504423D01*
X316502Y504500D01*
X316460Y504579D01*
X316420Y504660D01*
X316385Y504742D01*
X316353Y504826D01*
X316324Y504911D01*
X316299Y504998D01*
X316278Y505085D01*
X316261Y505173D01*
X316247Y505262D01*
X316238Y505352D01*
X316232Y505441D01*
X316230Y505531D01*
X356348Y506575D02*
X356348Y507619D01*
X361569Y507619D01*
X358958Y498221D01*
X381748Y503442D02*
X384881Y503442D01*
X384970Y503440D01*
X385058Y503434D01*
X385146Y503425D01*
X385234Y503412D01*
X385321Y503395D01*
X385407Y503375D01*
X385492Y503350D01*
X385577Y503323D01*
X385660Y503291D01*
X385741Y503257D01*
X385821Y503218D01*
X385899Y503177D01*
X385976Y503132D01*
X386050Y503084D01*
X386123Y503033D01*
X386193Y502979D01*
X386260Y502921D01*
X386326Y502861D01*
X386388Y502799D01*
X386448Y502733D01*
X386506Y502666D01*
X386560Y502596D01*
X386611Y502523D01*
X386659Y502449D01*
X386704Y502372D01*
X386745Y502294D01*
X386784Y502214D01*
X386818Y502133D01*
X386850Y502050D01*
X386877Y501965D01*
X386902Y501880D01*
X386922Y501794D01*
X386939Y501707D01*
X386952Y501619D01*
X386961Y501531D01*
X386967Y501443D01*
X386969Y501354D01*
X386969Y500832D01*
X386967Y500731D01*
X386961Y500630D01*
X386951Y500529D01*
X386938Y500429D01*
X386920Y500329D01*
X386899Y500230D01*
X386873Y500132D01*
X386844Y500035D01*
X386812Y499939D01*
X386775Y499845D01*
X386735Y499752D01*
X386691Y499660D01*
X386644Y499571D01*
X386593Y499483D01*
X386539Y499397D01*
X386482Y499314D01*
X386422Y499232D01*
X386358Y499154D01*
X386292Y499077D01*
X386222Y499004D01*
X386150Y498933D01*
X386075Y498865D01*
X385997Y498800D01*
X385917Y498738D01*
X385835Y498679D01*
X385750Y498623D01*
X385663Y498571D01*
X385575Y498522D01*
X385484Y498476D01*
X385392Y498435D01*
X385298Y498396D01*
X385203Y498362D01*
X385107Y498331D01*
X385009Y498304D01*
X384911Y498280D01*
X384811Y498261D01*
X384711Y498245D01*
X384611Y498233D01*
X384510Y498225D01*
X384409Y498221D01*
X384307Y498221D01*
X384206Y498225D01*
X384105Y498233D01*
X384005Y498245D01*
X383905Y498261D01*
X383805Y498280D01*
X383707Y498304D01*
X383609Y498331D01*
X383513Y498362D01*
X383418Y498396D01*
X383324Y498435D01*
X383232Y498476D01*
X383141Y498522D01*
X383053Y498571D01*
X382966Y498623D01*
X382881Y498679D01*
X382799Y498738D01*
X382719Y498800D01*
X382641Y498865D01*
X382566Y498933D01*
X382494Y499004D01*
X382424Y499077D01*
X382358Y499154D01*
X382294Y499232D01*
X382234Y499314D01*
X382177Y499397D01*
X382123Y499483D01*
X382072Y499571D01*
X382025Y499660D01*
X381981Y499752D01*
X381941Y499845D01*
X381904Y499939D01*
X381872Y500035D01*
X381843Y500132D01*
X381817Y500230D01*
X381796Y500329D01*
X381778Y500429D01*
X381765Y500529D01*
X381755Y500630D01*
X381749Y500731D01*
X381747Y500832D01*
X381748Y500832D02*
X381748Y503442D01*
X381750Y503571D01*
X381756Y503699D01*
X381766Y503827D01*
X381780Y503955D01*
X381797Y504083D01*
X381819Y504210D01*
X381845Y504336D01*
X381874Y504461D01*
X381907Y504585D01*
X381945Y504708D01*
X381985Y504830D01*
X382030Y504951D01*
X382078Y505070D01*
X382130Y505188D01*
X382186Y505304D01*
X382245Y505418D01*
X382308Y505530D01*
X382374Y505641D01*
X382443Y505749D01*
X382516Y505855D01*
X382592Y505959D01*
X382671Y506061D01*
X382753Y506160D01*
X382838Y506256D01*
X382926Y506350D01*
X383017Y506441D01*
X383111Y506529D01*
X383207Y506614D01*
X383306Y506696D01*
X383408Y506775D01*
X383512Y506851D01*
X383618Y506924D01*
X383726Y506993D01*
X383836Y507059D01*
X383949Y507122D01*
X384063Y507181D01*
X384179Y507237D01*
X384297Y507289D01*
X384416Y507337D01*
X384537Y507382D01*
X384659Y507422D01*
X384782Y507460D01*
X384906Y507493D01*
X385031Y507522D01*
X385157Y507548D01*
X385284Y507570D01*
X385412Y507587D01*
X385540Y507601D01*
X385668Y507611D01*
X385796Y507617D01*
X385925Y507619D01*
X407148Y498221D02*
X410281Y498221D01*
X410370Y498223D01*
X410458Y498229D01*
X410546Y498238D01*
X410634Y498251D01*
X410721Y498268D01*
X410807Y498288D01*
X410892Y498313D01*
X410977Y498340D01*
X411060Y498372D01*
X411141Y498406D01*
X411221Y498445D01*
X411299Y498486D01*
X411376Y498531D01*
X411450Y498579D01*
X411523Y498630D01*
X411593Y498684D01*
X411660Y498742D01*
X411726Y498802D01*
X411788Y498864D01*
X411848Y498930D01*
X411906Y498997D01*
X411960Y499067D01*
X412011Y499140D01*
X412059Y499214D01*
X412104Y499291D01*
X412145Y499369D01*
X412184Y499449D01*
X412218Y499530D01*
X412250Y499613D01*
X412277Y499698D01*
X412302Y499783D01*
X412322Y499869D01*
X412339Y499956D01*
X412352Y500044D01*
X412361Y500132D01*
X412367Y500220D01*
X412369Y500309D01*
X412369Y501354D01*
X412367Y501443D01*
X412361Y501531D01*
X412352Y501619D01*
X412339Y501707D01*
X412322Y501794D01*
X412302Y501880D01*
X412277Y501965D01*
X412250Y502050D01*
X412218Y502133D01*
X412184Y502214D01*
X412145Y502294D01*
X412104Y502372D01*
X412059Y502449D01*
X412011Y502523D01*
X411960Y502596D01*
X411906Y502666D01*
X411848Y502733D01*
X411788Y502799D01*
X411726Y502861D01*
X411660Y502921D01*
X411593Y502979D01*
X411523Y503033D01*
X411450Y503084D01*
X411376Y503132D01*
X411299Y503177D01*
X411221Y503218D01*
X411141Y503257D01*
X411060Y503291D01*
X410977Y503323D01*
X410892Y503350D01*
X410807Y503375D01*
X410721Y503395D01*
X410634Y503412D01*
X410546Y503425D01*
X410458Y503434D01*
X410370Y503440D01*
X410281Y503442D01*
X407148Y503442D01*
X407148Y507619D01*
X412369Y507619D01*
X432548Y500309D02*
X434636Y507619D01*
X432548Y500309D02*
X437769Y500309D01*
X436203Y502398D02*
X436203Y498221D01*
X457948Y498221D02*
X460558Y498221D01*
X460659Y498223D01*
X460760Y498229D01*
X460861Y498239D01*
X460961Y498252D01*
X461061Y498270D01*
X461160Y498291D01*
X461258Y498317D01*
X461355Y498346D01*
X461451Y498378D01*
X461545Y498415D01*
X461638Y498455D01*
X461730Y498499D01*
X461819Y498546D01*
X461907Y498597D01*
X461993Y498651D01*
X462076Y498708D01*
X462158Y498768D01*
X462236Y498832D01*
X462313Y498898D01*
X462386Y498968D01*
X462457Y499040D01*
X462525Y499115D01*
X462590Y499193D01*
X462652Y499273D01*
X462711Y499355D01*
X462767Y499440D01*
X462819Y499527D01*
X462868Y499615D01*
X462914Y499706D01*
X462955Y499798D01*
X462994Y499892D01*
X463028Y499987D01*
X463059Y500083D01*
X463086Y500181D01*
X463110Y500279D01*
X463129Y500379D01*
X463145Y500479D01*
X463157Y500579D01*
X463165Y500680D01*
X463169Y500781D01*
X463169Y500883D01*
X463165Y500984D01*
X463157Y501085D01*
X463145Y501185D01*
X463129Y501285D01*
X463110Y501385D01*
X463086Y501483D01*
X463059Y501581D01*
X463028Y501677D01*
X462994Y501772D01*
X462955Y501866D01*
X462914Y501958D01*
X462868Y502049D01*
X462819Y502137D01*
X462767Y502224D01*
X462711Y502309D01*
X462652Y502391D01*
X462590Y502471D01*
X462525Y502549D01*
X462457Y502624D01*
X462386Y502696D01*
X462313Y502766D01*
X462236Y502832D01*
X462158Y502896D01*
X462076Y502956D01*
X461993Y503013D01*
X461907Y503067D01*
X461819Y503118D01*
X461730Y503165D01*
X461638Y503209D01*
X461545Y503249D01*
X461451Y503286D01*
X461355Y503318D01*
X461258Y503347D01*
X461160Y503373D01*
X461061Y503394D01*
X460961Y503412D01*
X460861Y503425D01*
X460760Y503435D01*
X460659Y503441D01*
X460558Y503443D01*
X461081Y507619D02*
X457948Y507619D01*
X461081Y507619D02*
X461171Y507617D01*
X461260Y507611D01*
X461350Y507602D01*
X461439Y507588D01*
X461527Y507571D01*
X461614Y507550D01*
X461701Y507525D01*
X461786Y507496D01*
X461870Y507464D01*
X461952Y507429D01*
X462033Y507389D01*
X462112Y507347D01*
X462189Y507301D01*
X462264Y507251D01*
X462337Y507199D01*
X462408Y507143D01*
X462476Y507085D01*
X462541Y507023D01*
X462604Y506959D01*
X462664Y506892D01*
X462721Y506823D01*
X462775Y506751D01*
X462826Y506677D01*
X462874Y506601D01*
X462918Y506523D01*
X462959Y506443D01*
X462997Y506361D01*
X463031Y506278D01*
X463061Y506193D01*
X463088Y506107D01*
X463111Y506021D01*
X463130Y505933D01*
X463145Y505844D01*
X463157Y505755D01*
X463165Y505666D01*
X463169Y505576D01*
X463169Y505486D01*
X463165Y505396D01*
X463157Y505307D01*
X463145Y505218D01*
X463130Y505129D01*
X463111Y505041D01*
X463088Y504955D01*
X463061Y504869D01*
X463031Y504784D01*
X462997Y504701D01*
X462959Y504619D01*
X462918Y504539D01*
X462874Y504461D01*
X462826Y504385D01*
X462775Y504311D01*
X462721Y504239D01*
X462664Y504170D01*
X462604Y504103D01*
X462541Y504039D01*
X462476Y503977D01*
X462408Y503919D01*
X462337Y503863D01*
X462264Y503811D01*
X462189Y503761D01*
X462112Y503715D01*
X462033Y503673D01*
X461952Y503633D01*
X461870Y503598D01*
X461786Y503566D01*
X461701Y503537D01*
X461614Y503512D01*
X461527Y503491D01*
X461439Y503474D01*
X461350Y503460D01*
X461260Y503451D01*
X461171Y503445D01*
X461081Y503443D01*
X461081Y503442D02*
X458992Y503442D01*
X486220Y507620D02*
X486315Y507618D01*
X486409Y507612D01*
X486503Y507603D01*
X486597Y507590D01*
X486690Y507573D01*
X486782Y507552D01*
X486874Y507527D01*
X486964Y507499D01*
X487053Y507467D01*
X487141Y507432D01*
X487227Y507393D01*
X487312Y507351D01*
X487395Y507305D01*
X487476Y507256D01*
X487555Y507204D01*
X487632Y507149D01*
X487706Y507090D01*
X487778Y507029D01*
X487848Y506965D01*
X487915Y506898D01*
X487979Y506828D01*
X488040Y506756D01*
X488099Y506682D01*
X488154Y506605D01*
X488206Y506526D01*
X488255Y506445D01*
X488301Y506362D01*
X488343Y506277D01*
X488382Y506191D01*
X488417Y506103D01*
X488449Y506014D01*
X488477Y505924D01*
X488502Y505832D01*
X488523Y505740D01*
X488540Y505647D01*
X488553Y505553D01*
X488562Y505459D01*
X488568Y505365D01*
X488570Y505270D01*
X486220Y507619D02*
X486112Y507617D01*
X486003Y507611D01*
X485895Y507601D01*
X485788Y507588D01*
X485681Y507570D01*
X485574Y507549D01*
X485469Y507524D01*
X485364Y507495D01*
X485261Y507463D01*
X485159Y507426D01*
X485058Y507386D01*
X484959Y507343D01*
X484861Y507296D01*
X484765Y507245D01*
X484671Y507191D01*
X484579Y507134D01*
X484489Y507073D01*
X484401Y507009D01*
X484316Y506943D01*
X484233Y506873D01*
X484153Y506800D01*
X484075Y506724D01*
X484000Y506646D01*
X483928Y506565D01*
X483859Y506481D01*
X483793Y506395D01*
X483730Y506307D01*
X483671Y506216D01*
X483614Y506124D01*
X483561Y506029D01*
X483512Y505933D01*
X483466Y505834D01*
X483423Y505735D01*
X483384Y505633D01*
X483349Y505531D01*
X487786Y503442D02*
X487855Y503511D01*
X487921Y503582D01*
X487985Y503655D01*
X488046Y503731D01*
X488104Y503810D01*
X488158Y503890D01*
X488210Y503973D01*
X488258Y504057D01*
X488304Y504143D01*
X488345Y504231D01*
X488384Y504321D01*
X488419Y504412D01*
X488450Y504504D01*
X488478Y504597D01*
X488502Y504691D01*
X488522Y504786D01*
X488539Y504882D01*
X488552Y504979D01*
X488561Y505076D01*
X488567Y505173D01*
X488569Y505270D01*
X487786Y503442D02*
X483348Y498221D01*
X488569Y498221D01*
X508748Y505531D02*
X511358Y507619D01*
X511358Y498221D01*
X508748Y498221D02*
X513969Y498221D01*
X534148Y502920D02*
X534150Y503105D01*
X534157Y503290D01*
X534168Y503474D01*
X534183Y503658D01*
X534203Y503842D01*
X534227Y504026D01*
X534256Y504208D01*
X534289Y504390D01*
X534326Y504571D01*
X534368Y504751D01*
X534414Y504931D01*
X534464Y505109D01*
X534518Y505285D01*
X534577Y505461D01*
X534639Y505635D01*
X534706Y505807D01*
X534777Y505978D01*
X534852Y506147D01*
X534931Y506314D01*
X534930Y506314D02*
X534960Y506394D01*
X534993Y506473D01*
X535030Y506550D01*
X535070Y506626D01*
X535113Y506700D01*
X535159Y506772D01*
X535209Y506841D01*
X535261Y506909D01*
X535317Y506974D01*
X535375Y507037D01*
X535437Y507096D01*
X535500Y507154D01*
X535567Y507208D01*
X535635Y507259D01*
X535706Y507307D01*
X535779Y507352D01*
X535853Y507394D01*
X535930Y507432D01*
X536008Y507467D01*
X536087Y507499D01*
X536168Y507527D01*
X536250Y507551D01*
X536334Y507572D01*
X536417Y507589D01*
X536502Y507602D01*
X536587Y507611D01*
X536672Y507617D01*
X536758Y507619D01*
X536844Y507617D01*
X536929Y507611D01*
X537014Y507602D01*
X537099Y507589D01*
X537182Y507572D01*
X537266Y507551D01*
X537348Y507527D01*
X537429Y507499D01*
X537508Y507467D01*
X537586Y507432D01*
X537663Y507394D01*
X537737Y507352D01*
X537810Y507307D01*
X537881Y507259D01*
X537949Y507208D01*
X538016Y507154D01*
X538079Y507096D01*
X538141Y507037D01*
X538199Y506974D01*
X538255Y506909D01*
X538307Y506841D01*
X538357Y506772D01*
X538403Y506700D01*
X538446Y506626D01*
X538486Y506550D01*
X538523Y506473D01*
X538556Y506394D01*
X538586Y506314D01*
X538665Y506147D01*
X538740Y505978D01*
X538811Y505807D01*
X538878Y505635D01*
X538940Y505461D01*
X538999Y505285D01*
X539053Y505109D01*
X539103Y504931D01*
X539149Y504751D01*
X539191Y504571D01*
X539228Y504390D01*
X539261Y504208D01*
X539290Y504026D01*
X539314Y503842D01*
X539334Y503658D01*
X539349Y503474D01*
X539360Y503290D01*
X539367Y503105D01*
X539369Y502920D01*
X534148Y502920D02*
X534150Y502735D01*
X534157Y502550D01*
X534168Y502366D01*
X534183Y502182D01*
X534203Y501998D01*
X534227Y501814D01*
X534256Y501632D01*
X534289Y501450D01*
X534326Y501269D01*
X534368Y501089D01*
X534414Y500909D01*
X534464Y500731D01*
X534518Y500555D01*
X534577Y500379D01*
X534639Y500205D01*
X534706Y500033D01*
X534777Y499862D01*
X534852Y499693D01*
X534931Y499526D01*
X534930Y499526D02*
X534960Y499446D01*
X534993Y499367D01*
X535030Y499290D01*
X535070Y499214D01*
X535113Y499140D01*
X535159Y499068D01*
X535209Y498999D01*
X535262Y498931D01*
X535317Y498866D01*
X535376Y498803D01*
X535437Y498744D01*
X535500Y498686D01*
X535567Y498632D01*
X535635Y498581D01*
X535706Y498533D01*
X535779Y498488D01*
X535853Y498446D01*
X535930Y498408D01*
X536008Y498373D01*
X536087Y498341D01*
X536168Y498313D01*
X536250Y498289D01*
X536334Y498268D01*
X536417Y498251D01*
X536502Y498238D01*
X536587Y498229D01*
X536672Y498223D01*
X536758Y498221D01*
X538586Y499526D02*
X538665Y499693D01*
X538740Y499862D01*
X538811Y500033D01*
X538878Y500205D01*
X538940Y500379D01*
X538999Y500555D01*
X539053Y500731D01*
X539103Y500909D01*
X539149Y501089D01*
X539191Y501269D01*
X539228Y501450D01*
X539261Y501632D01*
X539290Y501814D01*
X539314Y501998D01*
X539334Y502182D01*
X539349Y502366D01*
X539360Y502550D01*
X539367Y502735D01*
X539369Y502920D01*
X538586Y499526D02*
X538556Y499446D01*
X538523Y499367D01*
X538486Y499290D01*
X538446Y499214D01*
X538403Y499140D01*
X538357Y499068D01*
X538307Y498999D01*
X538255Y498931D01*
X538199Y498866D01*
X538141Y498803D01*
X538079Y498744D01*
X538016Y498686D01*
X537949Y498632D01*
X537881Y498581D01*
X537810Y498533D01*
X537737Y498488D01*
X537663Y498446D01*
X537586Y498408D01*
X537508Y498373D01*
X537429Y498341D01*
X537348Y498313D01*
X537266Y498289D01*
X537182Y498268D01*
X537099Y498251D01*
X537014Y498238D01*
X536929Y498229D01*
X536844Y498223D01*
X536758Y498221D01*
X534670Y500309D02*
X538847Y505531D01*
X215011Y533781D02*
X215011Y543179D01*
X217622Y543179D01*
X217722Y543177D01*
X217822Y543171D01*
X217921Y543162D01*
X218021Y543148D01*
X218119Y543131D01*
X218217Y543110D01*
X218314Y543086D01*
X218410Y543057D01*
X218505Y543025D01*
X218598Y542990D01*
X218690Y542951D01*
X218781Y542908D01*
X218869Y542862D01*
X218956Y542812D01*
X219041Y542760D01*
X219124Y542704D01*
X219205Y542645D01*
X219283Y542582D01*
X219359Y542517D01*
X219433Y542449D01*
X219503Y542379D01*
X219571Y542305D01*
X219636Y542229D01*
X219699Y542151D01*
X219758Y542070D01*
X219814Y541987D01*
X219866Y541902D01*
X219916Y541815D01*
X219962Y541727D01*
X220005Y541636D01*
X220044Y541544D01*
X220079Y541451D01*
X220111Y541356D01*
X220140Y541260D01*
X220164Y541163D01*
X220185Y541065D01*
X220202Y540967D01*
X220216Y540867D01*
X220225Y540768D01*
X220231Y540668D01*
X220233Y540568D01*
X220232Y540568D02*
X220232Y536392D01*
X220233Y536392D02*
X220231Y536292D01*
X220225Y536192D01*
X220216Y536093D01*
X220202Y535993D01*
X220185Y535895D01*
X220164Y535797D01*
X220140Y535700D01*
X220111Y535604D01*
X220079Y535509D01*
X220044Y535416D01*
X220005Y535324D01*
X219962Y535233D01*
X219916Y535145D01*
X219866Y535058D01*
X219814Y534973D01*
X219758Y534890D01*
X219699Y534809D01*
X219636Y534731D01*
X219571Y534655D01*
X219503Y534581D01*
X219433Y534511D01*
X219359Y534443D01*
X219283Y534378D01*
X219205Y534315D01*
X219124Y534256D01*
X219041Y534200D01*
X218956Y534148D01*
X218869Y534098D01*
X218781Y534052D01*
X218690Y534009D01*
X218598Y533970D01*
X218505Y533935D01*
X218410Y533903D01*
X218314Y533874D01*
X218217Y533850D01*
X218119Y533829D01*
X218021Y533812D01*
X217921Y533798D01*
X217822Y533789D01*
X217722Y533783D01*
X217622Y533781D01*
X215011Y533781D01*
X224327Y533781D02*
X224327Y540046D01*
X224066Y542657D02*
X224066Y543179D01*
X224588Y543179D01*
X224588Y542657D01*
X224066Y542657D01*
X229551Y533781D02*
X232161Y533781D01*
X229551Y533781D02*
X229474Y533783D01*
X229398Y533789D01*
X229321Y533798D01*
X229245Y533811D01*
X229170Y533828D01*
X229096Y533848D01*
X229023Y533873D01*
X228952Y533900D01*
X228881Y533931D01*
X228813Y533966D01*
X228746Y534004D01*
X228681Y534045D01*
X228618Y534089D01*
X228558Y534136D01*
X228499Y534187D01*
X228444Y534240D01*
X228391Y534295D01*
X228340Y534354D01*
X228293Y534414D01*
X228249Y534477D01*
X228208Y534542D01*
X228170Y534609D01*
X228135Y534677D01*
X228104Y534748D01*
X228077Y534819D01*
X228052Y534892D01*
X228032Y534966D01*
X228015Y535041D01*
X228002Y535117D01*
X227993Y535194D01*
X227987Y535270D01*
X227985Y535347D01*
X227984Y535347D02*
X227984Y538480D01*
X227985Y538480D02*
X227987Y538557D01*
X227993Y538633D01*
X228002Y538710D01*
X228015Y538786D01*
X228032Y538861D01*
X228052Y538935D01*
X228077Y539008D01*
X228104Y539079D01*
X228135Y539150D01*
X228170Y539218D01*
X228208Y539285D01*
X228249Y539350D01*
X228293Y539413D01*
X228340Y539473D01*
X228391Y539532D01*
X228444Y539587D01*
X228499Y539640D01*
X228558Y539691D01*
X228618Y539738D01*
X228681Y539782D01*
X228746Y539823D01*
X228813Y539861D01*
X228881Y539896D01*
X228952Y539927D01*
X229023Y539954D01*
X229096Y539979D01*
X229170Y539999D01*
X229245Y540016D01*
X229321Y540029D01*
X229398Y540038D01*
X229474Y540044D01*
X229551Y540046D01*
X232161Y540046D01*
X232161Y532215D01*
X232159Y532138D01*
X232153Y532062D01*
X232144Y531985D01*
X232131Y531909D01*
X232114Y531834D01*
X232094Y531760D01*
X232069Y531687D01*
X232042Y531616D01*
X232011Y531545D01*
X231976Y531477D01*
X231938Y531410D01*
X231897Y531345D01*
X231853Y531282D01*
X231806Y531222D01*
X231755Y531163D01*
X231702Y531108D01*
X231647Y531055D01*
X231588Y531004D01*
X231528Y530957D01*
X231465Y530913D01*
X231400Y530872D01*
X231333Y530834D01*
X231265Y530799D01*
X231194Y530768D01*
X231123Y530741D01*
X231050Y530716D01*
X230976Y530696D01*
X230901Y530679D01*
X230825Y530666D01*
X230749Y530657D01*
X230672Y530651D01*
X230595Y530649D01*
X230595Y530648D02*
X228506Y530648D01*
X236214Y533781D02*
X236214Y540046D01*
X235953Y542657D02*
X235953Y543179D01*
X236475Y543179D01*
X236475Y542657D01*
X235953Y542657D01*
X239148Y540046D02*
X242281Y540046D01*
X240193Y543179D02*
X240193Y535347D01*
X240195Y535270D01*
X240201Y535194D01*
X240210Y535117D01*
X240223Y535041D01*
X240240Y534966D01*
X240260Y534892D01*
X240285Y534819D01*
X240312Y534748D01*
X240343Y534677D01*
X240378Y534609D01*
X240416Y534542D01*
X240457Y534477D01*
X240501Y534414D01*
X240548Y534354D01*
X240599Y534295D01*
X240652Y534240D01*
X240707Y534187D01*
X240766Y534136D01*
X240826Y534089D01*
X240889Y534045D01*
X240954Y534004D01*
X241021Y533966D01*
X241089Y533931D01*
X241160Y533900D01*
X241231Y533873D01*
X241304Y533848D01*
X241378Y533828D01*
X241453Y533811D01*
X241529Y533798D01*
X241606Y533789D01*
X241682Y533783D01*
X241759Y533781D01*
X242281Y533781D01*
X247490Y537436D02*
X249839Y537436D01*
X247490Y537435D02*
X247406Y537433D01*
X247321Y537427D01*
X247238Y537417D01*
X247154Y537404D01*
X247072Y537386D01*
X246990Y537365D01*
X246909Y537340D01*
X246830Y537312D01*
X246752Y537279D01*
X246676Y537243D01*
X246601Y537204D01*
X246528Y537161D01*
X246457Y537115D01*
X246389Y537066D01*
X246323Y537014D01*
X246259Y536958D01*
X246198Y536900D01*
X246140Y536839D01*
X246084Y536775D01*
X246032Y536709D01*
X245983Y536641D01*
X245937Y536570D01*
X245894Y536497D01*
X245855Y536422D01*
X245819Y536346D01*
X245786Y536268D01*
X245758Y536189D01*
X245733Y536108D01*
X245712Y536026D01*
X245694Y535944D01*
X245681Y535860D01*
X245671Y535777D01*
X245665Y535692D01*
X245663Y535608D01*
X245665Y535524D01*
X245671Y535439D01*
X245681Y535356D01*
X245694Y535272D01*
X245712Y535190D01*
X245733Y535108D01*
X245758Y535027D01*
X245786Y534948D01*
X245819Y534870D01*
X245855Y534794D01*
X245894Y534719D01*
X245937Y534646D01*
X245983Y534575D01*
X246032Y534507D01*
X246084Y534441D01*
X246140Y534377D01*
X246198Y534316D01*
X246259Y534258D01*
X246323Y534202D01*
X246389Y534150D01*
X246457Y534101D01*
X246528Y534055D01*
X246601Y534012D01*
X246676Y533973D01*
X246752Y533937D01*
X246830Y533904D01*
X246909Y533876D01*
X246990Y533851D01*
X247072Y533830D01*
X247154Y533812D01*
X247238Y533799D01*
X247321Y533789D01*
X247406Y533783D01*
X247490Y533781D01*
X249839Y533781D01*
X249839Y538480D01*
X249837Y538557D01*
X249831Y538633D01*
X249822Y538710D01*
X249809Y538786D01*
X249792Y538861D01*
X249772Y538935D01*
X249747Y539008D01*
X249720Y539079D01*
X249689Y539150D01*
X249654Y539218D01*
X249616Y539285D01*
X249575Y539350D01*
X249531Y539413D01*
X249484Y539473D01*
X249433Y539532D01*
X249380Y539587D01*
X249325Y539640D01*
X249266Y539691D01*
X249206Y539738D01*
X249143Y539782D01*
X249078Y539823D01*
X249011Y539861D01*
X248943Y539896D01*
X248872Y539927D01*
X248801Y539954D01*
X248728Y539979D01*
X248654Y539999D01*
X248579Y540016D01*
X248503Y540029D01*
X248426Y540038D01*
X248350Y540044D01*
X248273Y540046D01*
X246185Y540046D01*
X254063Y543179D02*
X254063Y535347D01*
X254065Y535270D01*
X254071Y535194D01*
X254080Y535117D01*
X254093Y535041D01*
X254110Y534966D01*
X254130Y534892D01*
X254155Y534819D01*
X254182Y534748D01*
X254213Y534677D01*
X254248Y534609D01*
X254286Y534542D01*
X254327Y534477D01*
X254371Y534414D01*
X254418Y534354D01*
X254469Y534295D01*
X254522Y534240D01*
X254577Y534187D01*
X254636Y534136D01*
X254696Y534089D01*
X254759Y534045D01*
X254824Y534004D01*
X254891Y533966D01*
X254959Y533931D01*
X255030Y533900D01*
X255101Y533873D01*
X255174Y533848D01*
X255248Y533828D01*
X255323Y533811D01*
X255399Y533798D01*
X255476Y533789D01*
X255552Y533783D01*
X255629Y533781D01*
X264560Y533781D02*
X264560Y543179D01*
X263516Y533781D02*
X265605Y533781D01*
X265605Y543179D02*
X263516Y543179D01*
X273050Y544223D02*
X268873Y532737D01*
X276580Y536392D02*
X276580Y540568D01*
X276582Y540669D01*
X276588Y540770D01*
X276598Y540871D01*
X276611Y540971D01*
X276629Y541071D01*
X276650Y541170D01*
X276676Y541268D01*
X276705Y541365D01*
X276737Y541461D01*
X276774Y541555D01*
X276814Y541648D01*
X276858Y541740D01*
X276905Y541829D01*
X276956Y541917D01*
X277010Y542003D01*
X277067Y542086D01*
X277127Y542168D01*
X277191Y542246D01*
X277257Y542323D01*
X277327Y542396D01*
X277399Y542467D01*
X277474Y542535D01*
X277552Y542600D01*
X277632Y542662D01*
X277714Y542721D01*
X277799Y542777D01*
X277886Y542829D01*
X277974Y542878D01*
X278065Y542924D01*
X278157Y542965D01*
X278251Y543004D01*
X278346Y543038D01*
X278442Y543069D01*
X278540Y543096D01*
X278638Y543120D01*
X278738Y543139D01*
X278838Y543155D01*
X278938Y543167D01*
X279039Y543175D01*
X279140Y543179D01*
X279242Y543179D01*
X279343Y543175D01*
X279444Y543167D01*
X279544Y543155D01*
X279644Y543139D01*
X279744Y543120D01*
X279842Y543096D01*
X279940Y543069D01*
X280036Y543038D01*
X280131Y543004D01*
X280225Y542965D01*
X280317Y542924D01*
X280408Y542878D01*
X280497Y542829D01*
X280583Y542777D01*
X280668Y542721D01*
X280750Y542662D01*
X280830Y542600D01*
X280908Y542535D01*
X280983Y542467D01*
X281055Y542396D01*
X281125Y542323D01*
X281191Y542246D01*
X281255Y542168D01*
X281315Y542086D01*
X281372Y542003D01*
X281426Y541917D01*
X281477Y541829D01*
X281524Y541740D01*
X281568Y541648D01*
X281608Y541555D01*
X281645Y541461D01*
X281677Y541365D01*
X281706Y541268D01*
X281732Y541170D01*
X281753Y541071D01*
X281771Y540971D01*
X281784Y540871D01*
X281794Y540770D01*
X281800Y540669D01*
X281802Y540568D01*
X281801Y540568D02*
X281801Y536392D01*
X281802Y536392D02*
X281800Y536291D01*
X281794Y536190D01*
X281784Y536089D01*
X281771Y535989D01*
X281753Y535889D01*
X281732Y535790D01*
X281706Y535692D01*
X281677Y535595D01*
X281645Y535499D01*
X281608Y535405D01*
X281568Y535312D01*
X281524Y535220D01*
X281477Y535131D01*
X281426Y535043D01*
X281372Y534957D01*
X281315Y534874D01*
X281255Y534792D01*
X281191Y534714D01*
X281125Y534637D01*
X281055Y534564D01*
X280983Y534493D01*
X280908Y534425D01*
X280830Y534360D01*
X280750Y534298D01*
X280668Y534239D01*
X280583Y534183D01*
X280496Y534131D01*
X280408Y534082D01*
X280317Y534036D01*
X280225Y533995D01*
X280131Y533956D01*
X280036Y533922D01*
X279940Y533891D01*
X279842Y533864D01*
X279744Y533840D01*
X279644Y533821D01*
X279544Y533805D01*
X279444Y533793D01*
X279343Y533785D01*
X279242Y533781D01*
X279140Y533781D01*
X279039Y533785D01*
X278938Y533793D01*
X278838Y533805D01*
X278738Y533821D01*
X278638Y533840D01*
X278540Y533864D01*
X278442Y533891D01*
X278346Y533922D01*
X278251Y533956D01*
X278157Y533995D01*
X278065Y534036D01*
X277974Y534082D01*
X277886Y534131D01*
X277799Y534183D01*
X277714Y534239D01*
X277632Y534298D01*
X277552Y534360D01*
X277474Y534425D01*
X277399Y534493D01*
X277327Y534564D01*
X277257Y534637D01*
X277191Y534714D01*
X277127Y534792D01*
X277067Y534874D01*
X277010Y534957D01*
X276956Y535043D01*
X276905Y535131D01*
X276858Y535220D01*
X276814Y535312D01*
X276774Y535405D01*
X276737Y535499D01*
X276705Y535595D01*
X276676Y535692D01*
X276650Y535790D01*
X276629Y535889D01*
X276611Y535989D01*
X276598Y536089D01*
X276588Y536190D01*
X276582Y536291D01*
X276580Y536392D01*
X408051Y533781D02*
X408051Y543179D01*
X410662Y543179D01*
X410762Y543177D01*
X410862Y543171D01*
X410961Y543162D01*
X411061Y543148D01*
X411159Y543131D01*
X411257Y543110D01*
X411354Y543086D01*
X411450Y543057D01*
X411545Y543025D01*
X411638Y542990D01*
X411730Y542951D01*
X411821Y542908D01*
X411909Y542862D01*
X411996Y542812D01*
X412081Y542760D01*
X412164Y542704D01*
X412245Y542645D01*
X412323Y542582D01*
X412399Y542517D01*
X412473Y542449D01*
X412543Y542379D01*
X412611Y542305D01*
X412676Y542229D01*
X412739Y542151D01*
X412798Y542070D01*
X412854Y541987D01*
X412906Y541902D01*
X412956Y541815D01*
X413002Y541727D01*
X413045Y541636D01*
X413084Y541544D01*
X413119Y541451D01*
X413151Y541356D01*
X413180Y541260D01*
X413204Y541163D01*
X413225Y541065D01*
X413242Y540967D01*
X413256Y540867D01*
X413265Y540768D01*
X413271Y540668D01*
X413273Y540568D01*
X413272Y540568D02*
X413272Y536392D01*
X413273Y536392D02*
X413271Y536292D01*
X413265Y536192D01*
X413256Y536093D01*
X413242Y535993D01*
X413225Y535895D01*
X413204Y535797D01*
X413180Y535700D01*
X413151Y535604D01*
X413119Y535509D01*
X413084Y535416D01*
X413045Y535324D01*
X413002Y535233D01*
X412956Y535145D01*
X412906Y535058D01*
X412854Y534973D01*
X412798Y534890D01*
X412739Y534809D01*
X412676Y534731D01*
X412611Y534655D01*
X412543Y534581D01*
X412473Y534511D01*
X412399Y534443D01*
X412323Y534378D01*
X412245Y534315D01*
X412164Y534256D01*
X412081Y534200D01*
X411996Y534148D01*
X411909Y534098D01*
X411821Y534052D01*
X411730Y534009D01*
X411638Y533970D01*
X411545Y533935D01*
X411450Y533903D01*
X411354Y533874D01*
X411257Y533850D01*
X411159Y533829D01*
X411061Y533812D01*
X410961Y533798D01*
X410862Y533789D01*
X410762Y533783D01*
X410662Y533781D01*
X408051Y533781D01*
X417367Y533781D02*
X417367Y540046D01*
X417106Y542657D02*
X417106Y543179D01*
X417628Y543179D01*
X417628Y542657D01*
X417106Y542657D01*
X422591Y533781D02*
X425201Y533781D01*
X422591Y533781D02*
X422514Y533783D01*
X422438Y533789D01*
X422361Y533798D01*
X422285Y533811D01*
X422210Y533828D01*
X422136Y533848D01*
X422063Y533873D01*
X421992Y533900D01*
X421921Y533931D01*
X421853Y533966D01*
X421786Y534004D01*
X421721Y534045D01*
X421658Y534089D01*
X421598Y534136D01*
X421539Y534187D01*
X421484Y534240D01*
X421431Y534295D01*
X421380Y534354D01*
X421333Y534414D01*
X421289Y534477D01*
X421248Y534542D01*
X421210Y534609D01*
X421175Y534677D01*
X421144Y534748D01*
X421117Y534819D01*
X421092Y534892D01*
X421072Y534966D01*
X421055Y535041D01*
X421042Y535117D01*
X421033Y535194D01*
X421027Y535270D01*
X421025Y535347D01*
X421024Y535347D02*
X421024Y538480D01*
X421025Y538480D02*
X421027Y538557D01*
X421033Y538633D01*
X421042Y538710D01*
X421055Y538786D01*
X421072Y538861D01*
X421092Y538935D01*
X421117Y539008D01*
X421144Y539079D01*
X421175Y539150D01*
X421210Y539218D01*
X421248Y539285D01*
X421289Y539350D01*
X421333Y539413D01*
X421380Y539473D01*
X421431Y539532D01*
X421484Y539587D01*
X421539Y539640D01*
X421598Y539691D01*
X421658Y539738D01*
X421721Y539782D01*
X421786Y539823D01*
X421853Y539861D01*
X421921Y539896D01*
X421992Y539927D01*
X422063Y539954D01*
X422136Y539979D01*
X422210Y539999D01*
X422285Y540016D01*
X422361Y540029D01*
X422438Y540038D01*
X422514Y540044D01*
X422591Y540046D01*
X425201Y540046D01*
X425201Y532215D01*
X425199Y532138D01*
X425193Y532062D01*
X425184Y531985D01*
X425171Y531909D01*
X425154Y531834D01*
X425134Y531760D01*
X425109Y531687D01*
X425082Y531616D01*
X425051Y531545D01*
X425016Y531477D01*
X424978Y531410D01*
X424937Y531345D01*
X424893Y531282D01*
X424846Y531222D01*
X424795Y531163D01*
X424742Y531108D01*
X424687Y531055D01*
X424628Y531004D01*
X424568Y530957D01*
X424505Y530913D01*
X424440Y530872D01*
X424373Y530834D01*
X424305Y530799D01*
X424234Y530768D01*
X424163Y530741D01*
X424090Y530716D01*
X424016Y530696D01*
X423941Y530679D01*
X423865Y530666D01*
X423789Y530657D01*
X423712Y530651D01*
X423635Y530649D01*
X423635Y530648D02*
X421546Y530648D01*
X429254Y533781D02*
X429254Y540046D01*
X428993Y542657D02*
X428993Y543179D01*
X429515Y543179D01*
X429515Y542657D01*
X428993Y542657D01*
X432188Y540046D02*
X435321Y540046D01*
X433233Y543179D02*
X433233Y535347D01*
X433235Y535270D01*
X433241Y535194D01*
X433250Y535117D01*
X433263Y535041D01*
X433280Y534966D01*
X433300Y534892D01*
X433325Y534819D01*
X433352Y534748D01*
X433383Y534677D01*
X433418Y534609D01*
X433456Y534542D01*
X433497Y534477D01*
X433541Y534414D01*
X433588Y534354D01*
X433639Y534295D01*
X433692Y534240D01*
X433747Y534187D01*
X433806Y534136D01*
X433866Y534089D01*
X433929Y534045D01*
X433994Y534004D01*
X434061Y533966D01*
X434129Y533931D01*
X434200Y533900D01*
X434271Y533873D01*
X434344Y533848D01*
X434418Y533828D01*
X434493Y533811D01*
X434569Y533798D01*
X434646Y533789D01*
X434722Y533783D01*
X434799Y533781D01*
X435321Y533781D01*
X440530Y537436D02*
X442879Y537436D01*
X440530Y537435D02*
X440446Y537433D01*
X440361Y537427D01*
X440278Y537417D01*
X440194Y537404D01*
X440112Y537386D01*
X440030Y537365D01*
X439949Y537340D01*
X439870Y537312D01*
X439792Y537279D01*
X439716Y537243D01*
X439641Y537204D01*
X439568Y537161D01*
X439497Y537115D01*
X439429Y537066D01*
X439363Y537014D01*
X439299Y536958D01*
X439238Y536900D01*
X439180Y536839D01*
X439124Y536775D01*
X439072Y536709D01*
X439023Y536641D01*
X438977Y536570D01*
X438934Y536497D01*
X438895Y536422D01*
X438859Y536346D01*
X438826Y536268D01*
X438798Y536189D01*
X438773Y536108D01*
X438752Y536026D01*
X438734Y535944D01*
X438721Y535860D01*
X438711Y535777D01*
X438705Y535692D01*
X438703Y535608D01*
X438705Y535524D01*
X438711Y535439D01*
X438721Y535356D01*
X438734Y535272D01*
X438752Y535190D01*
X438773Y535108D01*
X438798Y535027D01*
X438826Y534948D01*
X438859Y534870D01*
X438895Y534794D01*
X438934Y534719D01*
X438977Y534646D01*
X439023Y534575D01*
X439072Y534507D01*
X439124Y534441D01*
X439180Y534377D01*
X439238Y534316D01*
X439299Y534258D01*
X439363Y534202D01*
X439429Y534150D01*
X439497Y534101D01*
X439568Y534055D01*
X439641Y534012D01*
X439716Y533973D01*
X439792Y533937D01*
X439870Y533904D01*
X439949Y533876D01*
X440030Y533851D01*
X440112Y533830D01*
X440194Y533812D01*
X440278Y533799D01*
X440361Y533789D01*
X440446Y533783D01*
X440530Y533781D01*
X442879Y533781D01*
X442879Y538480D01*
X442877Y538557D01*
X442871Y538633D01*
X442862Y538710D01*
X442849Y538786D01*
X442832Y538861D01*
X442812Y538935D01*
X442787Y539008D01*
X442760Y539079D01*
X442729Y539150D01*
X442694Y539218D01*
X442656Y539285D01*
X442615Y539350D01*
X442571Y539413D01*
X442524Y539473D01*
X442473Y539532D01*
X442420Y539587D01*
X442365Y539640D01*
X442306Y539691D01*
X442246Y539738D01*
X442183Y539782D01*
X442118Y539823D01*
X442051Y539861D01*
X441983Y539896D01*
X441912Y539927D01*
X441841Y539954D01*
X441768Y539979D01*
X441694Y539999D01*
X441619Y540016D01*
X441543Y540029D01*
X441466Y540038D01*
X441390Y540044D01*
X441313Y540046D01*
X439225Y540046D01*
X447103Y543179D02*
X447103Y535347D01*
X447105Y535270D01*
X447111Y535194D01*
X447120Y535117D01*
X447133Y535041D01*
X447150Y534966D01*
X447170Y534892D01*
X447195Y534819D01*
X447222Y534748D01*
X447253Y534677D01*
X447288Y534609D01*
X447326Y534542D01*
X447367Y534477D01*
X447411Y534414D01*
X447458Y534354D01*
X447509Y534295D01*
X447562Y534240D01*
X447617Y534187D01*
X447676Y534136D01*
X447736Y534089D01*
X447799Y534045D01*
X447864Y534004D01*
X447931Y533966D01*
X447999Y533931D01*
X448070Y533900D01*
X448141Y533873D01*
X448214Y533848D01*
X448288Y533828D01*
X448363Y533811D01*
X448439Y533798D01*
X448516Y533789D01*
X448592Y533783D01*
X448669Y533781D01*
X457600Y533781D02*
X457600Y543179D01*
X456556Y533781D02*
X458645Y533781D01*
X458645Y543179D02*
X456556Y543179D01*
X466090Y544223D02*
X461913Y532737D01*
X469620Y536392D02*
X469620Y540568D01*
X469622Y540669D01*
X469628Y540770D01*
X469638Y540871D01*
X469651Y540971D01*
X469669Y541071D01*
X469690Y541170D01*
X469716Y541268D01*
X469745Y541365D01*
X469777Y541461D01*
X469814Y541555D01*
X469854Y541648D01*
X469898Y541740D01*
X469945Y541829D01*
X469996Y541917D01*
X470050Y542003D01*
X470107Y542086D01*
X470167Y542168D01*
X470231Y542246D01*
X470297Y542323D01*
X470367Y542396D01*
X470439Y542467D01*
X470514Y542535D01*
X470592Y542600D01*
X470672Y542662D01*
X470754Y542721D01*
X470839Y542777D01*
X470926Y542829D01*
X471014Y542878D01*
X471105Y542924D01*
X471197Y542965D01*
X471291Y543004D01*
X471386Y543038D01*
X471482Y543069D01*
X471580Y543096D01*
X471678Y543120D01*
X471778Y543139D01*
X471878Y543155D01*
X471978Y543167D01*
X472079Y543175D01*
X472180Y543179D01*
X472282Y543179D01*
X472383Y543175D01*
X472484Y543167D01*
X472584Y543155D01*
X472684Y543139D01*
X472784Y543120D01*
X472882Y543096D01*
X472980Y543069D01*
X473076Y543038D01*
X473171Y543004D01*
X473265Y542965D01*
X473357Y542924D01*
X473448Y542878D01*
X473537Y542829D01*
X473623Y542777D01*
X473708Y542721D01*
X473790Y542662D01*
X473870Y542600D01*
X473948Y542535D01*
X474023Y542467D01*
X474095Y542396D01*
X474165Y542323D01*
X474231Y542246D01*
X474295Y542168D01*
X474355Y542086D01*
X474412Y542003D01*
X474466Y541917D01*
X474517Y541829D01*
X474564Y541740D01*
X474608Y541648D01*
X474648Y541555D01*
X474685Y541461D01*
X474717Y541365D01*
X474746Y541268D01*
X474772Y541170D01*
X474793Y541071D01*
X474811Y540971D01*
X474824Y540871D01*
X474834Y540770D01*
X474840Y540669D01*
X474842Y540568D01*
X474841Y540568D02*
X474841Y536392D01*
X474842Y536392D02*
X474840Y536291D01*
X474834Y536190D01*
X474824Y536089D01*
X474811Y535989D01*
X474793Y535889D01*
X474772Y535790D01*
X474746Y535692D01*
X474717Y535595D01*
X474685Y535499D01*
X474648Y535405D01*
X474608Y535312D01*
X474564Y535220D01*
X474517Y535131D01*
X474466Y535043D01*
X474412Y534957D01*
X474355Y534874D01*
X474295Y534792D01*
X474231Y534714D01*
X474165Y534637D01*
X474095Y534564D01*
X474023Y534493D01*
X473948Y534425D01*
X473870Y534360D01*
X473790Y534298D01*
X473708Y534239D01*
X473623Y534183D01*
X473536Y534131D01*
X473448Y534082D01*
X473357Y534036D01*
X473265Y533995D01*
X473171Y533956D01*
X473076Y533922D01*
X472980Y533891D01*
X472882Y533864D01*
X472784Y533840D01*
X472684Y533821D01*
X472584Y533805D01*
X472484Y533793D01*
X472383Y533785D01*
X472282Y533781D01*
X472180Y533781D01*
X472079Y533785D01*
X471978Y533793D01*
X471878Y533805D01*
X471778Y533821D01*
X471678Y533840D01*
X471580Y533864D01*
X471482Y533891D01*
X471386Y533922D01*
X471291Y533956D01*
X471197Y533995D01*
X471105Y534036D01*
X471014Y534082D01*
X470926Y534131D01*
X470839Y534183D01*
X470754Y534239D01*
X470672Y534298D01*
X470592Y534360D01*
X470514Y534425D01*
X470439Y534493D01*
X470367Y534564D01*
X470297Y534637D01*
X470231Y534714D01*
X470167Y534792D01*
X470107Y534874D01*
X470050Y534957D01*
X469996Y535043D01*
X469945Y535131D01*
X469898Y535220D01*
X469854Y535312D01*
X469814Y535405D01*
X469777Y535499D01*
X469745Y535595D01*
X469716Y535692D01*
X469690Y535790D01*
X469669Y535889D01*
X469651Y535989D01*
X469638Y536089D01*
X469628Y536190D01*
X469622Y536291D01*
X469620Y536392D01*
D10*
X537000Y662940D02*
X987000Y662940D01*
X537000Y662940D02*
X537000Y679300D01*
X552000Y679300D01*
X712000Y679300D01*
X812000Y679300D01*
X972000Y679300D01*
X987000Y679300D01*
X987000Y662940D01*
X812800Y662940D02*
X711200Y662940D01*
X812800Y662940D02*
X812800Y637540D01*
X803910Y637540D01*
X796290Y637540D01*
X778510Y637540D01*
X770890Y637540D01*
X753110Y637540D01*
X745490Y637540D01*
X727710Y637540D01*
X720090Y637540D01*
X711200Y637540D01*
X711200Y662940D01*
X720090Y637540D02*
X720090Y631190D01*
X727710Y631190D02*
X727710Y637540D01*
X745490Y637540D02*
X745490Y631190D01*
X770890Y631190D02*
X770890Y637540D01*
X796290Y637540D02*
X796290Y631190D01*
X753110Y631190D02*
X753110Y637540D01*
X778510Y637540D02*
X778510Y631190D01*
X803910Y631190D02*
X803910Y637540D01*
X972000Y679300D02*
X972000Y799300D01*
X812000Y799300D01*
X812000Y679300D01*
X712000Y679300D02*
X712000Y799300D01*
X552000Y799300D01*
X552000Y679300D01*
D16*
X747896Y602742D02*
X747896Y594304D01*
X747898Y594191D01*
X747904Y594078D01*
X747914Y593965D01*
X747928Y593852D01*
X747945Y593740D01*
X747967Y593629D01*
X747992Y593519D01*
X748022Y593409D01*
X748055Y593301D01*
X748092Y593194D01*
X748132Y593088D01*
X748177Y592984D01*
X748225Y592881D01*
X748276Y592780D01*
X748331Y592681D01*
X748389Y592584D01*
X748451Y592489D01*
X748516Y592396D01*
X748584Y592306D01*
X748655Y592218D01*
X748730Y592132D01*
X748807Y592049D01*
X748887Y591969D01*
X748970Y591892D01*
X749056Y591817D01*
X749144Y591746D01*
X749234Y591678D01*
X749327Y591613D01*
X749422Y591551D01*
X749519Y591493D01*
X749618Y591438D01*
X749719Y591387D01*
X749822Y591339D01*
X749926Y591294D01*
X750032Y591254D01*
X750139Y591217D01*
X750247Y591184D01*
X750357Y591154D01*
X750467Y591129D01*
X750578Y591107D01*
X750690Y591090D01*
X750803Y591076D01*
X750916Y591066D01*
X751029Y591060D01*
X751142Y591058D01*
X751255Y591060D01*
X751368Y591066D01*
X751481Y591076D01*
X751594Y591090D01*
X751706Y591107D01*
X751817Y591129D01*
X751927Y591154D01*
X752037Y591184D01*
X752145Y591217D01*
X752252Y591254D01*
X752358Y591294D01*
X752462Y591339D01*
X752565Y591387D01*
X752666Y591438D01*
X752765Y591493D01*
X752862Y591551D01*
X752957Y591613D01*
X753050Y591678D01*
X753140Y591746D01*
X753228Y591817D01*
X753314Y591892D01*
X753397Y591969D01*
X753477Y592049D01*
X753554Y592132D01*
X753629Y592218D01*
X753700Y592306D01*
X753768Y592396D01*
X753833Y592489D01*
X753895Y592584D01*
X753953Y592681D01*
X754008Y592780D01*
X754059Y592881D01*
X754107Y592984D01*
X754152Y593088D01*
X754192Y593194D01*
X754229Y593301D01*
X754262Y593409D01*
X754292Y593519D01*
X754317Y593629D01*
X754339Y593740D01*
X754356Y593852D01*
X754370Y593965D01*
X754380Y594078D01*
X754386Y594191D01*
X754388Y594304D01*
X754387Y594304D02*
X754387Y602742D01*
X762191Y602742D02*
X762191Y591058D01*
X762191Y596900D02*
X760568Y597874D01*
X760567Y597873D02*
X760494Y597920D01*
X760423Y597969D01*
X760353Y598022D01*
X760287Y598078D01*
X760223Y598137D01*
X760161Y598198D01*
X760103Y598262D01*
X760047Y598329D01*
X759995Y598398D01*
X759945Y598470D01*
X759899Y598544D01*
X759856Y598619D01*
X759817Y598697D01*
X759781Y598776D01*
X759749Y598857D01*
X759720Y598939D01*
X759695Y599022D01*
X759674Y599106D01*
X759657Y599191D01*
X759643Y599277D01*
X759634Y599363D01*
X759628Y599450D01*
X759626Y599537D01*
X759628Y599624D01*
X759634Y599711D01*
X759644Y599797D01*
X759657Y599883D01*
X759675Y599968D01*
X759696Y600052D01*
X759721Y600135D01*
X759750Y600218D01*
X759782Y600298D01*
X759818Y600377D01*
X759857Y600455D01*
X759900Y600530D01*
X759947Y600604D01*
X759996Y600675D01*
X760049Y600745D01*
X760104Y600811D01*
X760163Y600875D01*
X760224Y600937D01*
X760289Y600996D01*
X760355Y601051D01*
X760424Y601104D01*
X760496Y601154D01*
X760569Y601200D01*
X760645Y601243D01*
X760722Y601282D01*
X760801Y601318D01*
X760882Y601351D01*
X760964Y601379D01*
X761047Y601405D01*
X761131Y601426D01*
X761217Y601443D01*
X761217Y601444D02*
X761357Y601468D01*
X761499Y601488D01*
X761640Y601504D01*
X761782Y601515D01*
X761925Y601523D01*
X762067Y601527D01*
X762210Y601528D01*
X762353Y601524D01*
X762495Y601516D01*
X762637Y601504D01*
X762779Y601488D01*
X762920Y601469D01*
X763061Y601445D01*
X763201Y601418D01*
X763340Y601386D01*
X763478Y601351D01*
X763616Y601312D01*
X763752Y601269D01*
X763886Y601223D01*
X764020Y601172D01*
X764152Y601119D01*
X764282Y601061D01*
X764411Y601000D01*
X764538Y600935D01*
X764664Y600867D01*
X764787Y600795D01*
X762191Y596900D02*
X763813Y595926D01*
X763814Y595927D02*
X763887Y595880D01*
X763958Y595831D01*
X764028Y595778D01*
X764094Y595722D01*
X764158Y595663D01*
X764220Y595602D01*
X764278Y595538D01*
X764334Y595471D01*
X764386Y595402D01*
X764436Y595330D01*
X764482Y595256D01*
X764525Y595181D01*
X764564Y595103D01*
X764600Y595024D01*
X764632Y594943D01*
X764661Y594861D01*
X764686Y594778D01*
X764707Y594694D01*
X764724Y594609D01*
X764738Y594523D01*
X764747Y594437D01*
X764753Y594350D01*
X764755Y594263D01*
X764753Y594176D01*
X764747Y594089D01*
X764737Y594003D01*
X764724Y593917D01*
X764706Y593832D01*
X764685Y593748D01*
X764660Y593665D01*
X764631Y593582D01*
X764599Y593502D01*
X764563Y593423D01*
X764524Y593345D01*
X764481Y593270D01*
X764434Y593196D01*
X764385Y593125D01*
X764332Y593055D01*
X764277Y592989D01*
X764218Y592925D01*
X764157Y592863D01*
X764092Y592804D01*
X764026Y592749D01*
X763957Y592696D01*
X763885Y592646D01*
X763812Y592600D01*
X763736Y592557D01*
X763659Y592518D01*
X763580Y592482D01*
X763499Y592449D01*
X763417Y592421D01*
X763334Y592395D01*
X763250Y592374D01*
X763165Y592357D01*
X763164Y592356D02*
X763024Y592332D01*
X762882Y592312D01*
X762741Y592296D01*
X762599Y592285D01*
X762456Y592277D01*
X762314Y592273D01*
X762171Y592272D01*
X762028Y592276D01*
X761886Y592284D01*
X761744Y592296D01*
X761602Y592312D01*
X761461Y592331D01*
X761320Y592355D01*
X761180Y592382D01*
X761041Y592414D01*
X760903Y592449D01*
X760765Y592488D01*
X760629Y592531D01*
X760495Y592577D01*
X760361Y592628D01*
X760229Y592681D01*
X760099Y592739D01*
X759970Y592800D01*
X759843Y592865D01*
X759717Y592933D01*
X759594Y593005D01*
X773183Y602742D02*
X773290Y602740D01*
X773396Y602734D01*
X773502Y602724D01*
X773608Y602711D01*
X773714Y602693D01*
X773818Y602672D01*
X773922Y602647D01*
X774025Y602618D01*
X774126Y602586D01*
X774226Y602549D01*
X774325Y602509D01*
X774423Y602466D01*
X774519Y602419D01*
X774613Y602368D01*
X774705Y602314D01*
X774795Y602257D01*
X774883Y602197D01*
X774968Y602133D01*
X775051Y602066D01*
X775132Y601996D01*
X775210Y601924D01*
X775286Y601848D01*
X775358Y601770D01*
X775428Y601689D01*
X775495Y601606D01*
X775559Y601521D01*
X775619Y601433D01*
X775676Y601343D01*
X775730Y601251D01*
X775781Y601157D01*
X775828Y601061D01*
X775871Y600963D01*
X775911Y600864D01*
X775948Y600764D01*
X775980Y600663D01*
X776009Y600560D01*
X776034Y600456D01*
X776055Y600352D01*
X776073Y600246D01*
X776086Y600140D01*
X776096Y600034D01*
X776102Y599928D01*
X776104Y599821D01*
X773183Y602742D02*
X773062Y602740D01*
X772941Y602734D01*
X772821Y602724D01*
X772700Y602711D01*
X772581Y602693D01*
X772461Y602672D01*
X772343Y602647D01*
X772226Y602618D01*
X772109Y602585D01*
X771994Y602549D01*
X771880Y602508D01*
X771767Y602465D01*
X771655Y602417D01*
X771546Y602366D01*
X771438Y602311D01*
X771331Y602253D01*
X771227Y602192D01*
X771125Y602127D01*
X771025Y602059D01*
X770927Y601988D01*
X770831Y601914D01*
X770738Y601837D01*
X770648Y601756D01*
X770560Y601673D01*
X770475Y601587D01*
X770392Y601498D01*
X770313Y601407D01*
X770236Y601313D01*
X770163Y601217D01*
X770093Y601119D01*
X770026Y601018D01*
X769962Y600915D01*
X769902Y600810D01*
X769845Y600703D01*
X769791Y600595D01*
X769741Y600485D01*
X769695Y600373D01*
X769652Y600260D01*
X769613Y600145D01*
X775131Y597549D02*
X775210Y597626D01*
X775286Y597707D01*
X775359Y597790D01*
X775429Y597875D01*
X775496Y597963D01*
X775560Y598053D01*
X775620Y598145D01*
X775677Y598240D01*
X775731Y598336D01*
X775782Y598434D01*
X775829Y598534D01*
X775873Y598636D01*
X775913Y598739D01*
X775949Y598843D01*
X775981Y598949D01*
X776010Y599055D01*
X776035Y599163D01*
X776057Y599271D01*
X776074Y599381D01*
X776088Y599490D01*
X776097Y599600D01*
X776103Y599711D01*
X776105Y599821D01*
X775130Y597549D02*
X769613Y591058D01*
X776104Y591058D01*
D11*
X201930Y346710D02*
X201928Y346810D01*
X201922Y346909D01*
X201912Y347009D01*
X201899Y347107D01*
X201881Y347206D01*
X201860Y347303D01*
X201835Y347399D01*
X201806Y347495D01*
X201773Y347589D01*
X201737Y347682D01*
X201697Y347773D01*
X201653Y347863D01*
X201606Y347951D01*
X201556Y348037D01*
X201502Y348121D01*
X201445Y348203D01*
X201385Y348282D01*
X201321Y348360D01*
X201255Y348434D01*
X201186Y348506D01*
X201114Y348575D01*
X201040Y348641D01*
X200962Y348705D01*
X200883Y348765D01*
X200801Y348822D01*
X200717Y348876D01*
X200631Y348926D01*
X200543Y348973D01*
X200453Y349017D01*
X200362Y349057D01*
X200269Y349093D01*
X200175Y349126D01*
X200079Y349155D01*
X199983Y349180D01*
X199886Y349201D01*
X199787Y349219D01*
X199689Y349232D01*
X199589Y349242D01*
X199490Y349248D01*
X199390Y349250D01*
X181610Y349250D02*
X181510Y349248D01*
X181411Y349242D01*
X181311Y349232D01*
X181213Y349219D01*
X181114Y349201D01*
X181017Y349180D01*
X180921Y349155D01*
X180825Y349126D01*
X180731Y349093D01*
X180638Y349057D01*
X180547Y349017D01*
X180457Y348973D01*
X180369Y348926D01*
X180283Y348876D01*
X180199Y348822D01*
X180117Y348765D01*
X180038Y348705D01*
X179960Y348641D01*
X179886Y348575D01*
X179814Y348506D01*
X179745Y348434D01*
X179679Y348360D01*
X179615Y348282D01*
X179555Y348203D01*
X179498Y348121D01*
X179444Y348037D01*
X179394Y347951D01*
X179347Y347863D01*
X179303Y347773D01*
X179263Y347682D01*
X179227Y347589D01*
X179194Y347495D01*
X179165Y347399D01*
X179140Y347303D01*
X179119Y347206D01*
X179101Y347107D01*
X179088Y347009D01*
X179078Y346909D01*
X179072Y346810D01*
X179070Y346710D01*
X179070Y288290D02*
X179072Y288190D01*
X179078Y288091D01*
X179088Y287991D01*
X179101Y287893D01*
X179119Y287794D01*
X179140Y287697D01*
X179165Y287601D01*
X179194Y287505D01*
X179227Y287411D01*
X179263Y287318D01*
X179303Y287227D01*
X179347Y287137D01*
X179394Y287049D01*
X179444Y286963D01*
X179498Y286879D01*
X179555Y286797D01*
X179615Y286718D01*
X179679Y286640D01*
X179745Y286566D01*
X179814Y286494D01*
X179886Y286425D01*
X179960Y286359D01*
X180038Y286295D01*
X180117Y286235D01*
X180199Y286178D01*
X180283Y286124D01*
X180369Y286074D01*
X180457Y286027D01*
X180547Y285983D01*
X180638Y285943D01*
X180731Y285907D01*
X180825Y285874D01*
X180921Y285845D01*
X181017Y285820D01*
X181114Y285799D01*
X181213Y285781D01*
X181311Y285768D01*
X181411Y285758D01*
X181510Y285752D01*
X181610Y285750D01*
X199390Y285750D02*
X199490Y285752D01*
X199589Y285758D01*
X199689Y285768D01*
X199787Y285781D01*
X199886Y285799D01*
X199983Y285820D01*
X200079Y285845D01*
X200175Y285874D01*
X200269Y285907D01*
X200362Y285943D01*
X200453Y285983D01*
X200543Y286027D01*
X200631Y286074D01*
X200717Y286124D01*
X200801Y286178D01*
X200883Y286235D01*
X200962Y286295D01*
X201040Y286359D01*
X201114Y286425D01*
X201186Y286494D01*
X201255Y286566D01*
X201321Y286640D01*
X201385Y286718D01*
X201445Y286797D01*
X201502Y286879D01*
X201556Y286963D01*
X201606Y287049D01*
X201653Y287137D01*
X201697Y287227D01*
X201737Y287318D01*
X201773Y287411D01*
X201806Y287505D01*
X201835Y287601D01*
X201860Y287697D01*
X201881Y287794D01*
X201899Y287893D01*
X201912Y287991D01*
X201922Y288091D01*
X201928Y288190D01*
X201930Y288290D01*
X199390Y349250D02*
X181610Y349250D01*
X201930Y346710D02*
X201930Y342900D01*
X200660Y341630D01*
X179070Y342900D02*
X179070Y346710D01*
X179070Y342900D02*
X180340Y341630D01*
X200660Y293370D02*
X201930Y292100D01*
X200660Y293370D02*
X200660Y341630D01*
X180340Y293370D02*
X179070Y292100D01*
X180340Y293370D02*
X180340Y341630D01*
X201930Y292100D02*
X201930Y288290D01*
X179070Y288290D02*
X179070Y292100D01*
X181610Y285750D02*
X199390Y285750D01*
D17*
X190500Y281432D03*
X190500Y353568D03*
D10*
X206375Y271399D02*
X217805Y271399D01*
X211455Y271399D02*
X211455Y277749D01*
X206375Y277749D02*
X217805Y277749D01*
X211773Y286385D02*
X206375Y282575D01*
X211773Y286385D02*
X206375Y290195D01*
X211773Y286385D02*
X217805Y286385D01*
X217805Y295212D02*
X206375Y295212D01*
X206375Y298387D01*
X206377Y298498D01*
X206383Y298608D01*
X206392Y298719D01*
X206406Y298829D01*
X206423Y298938D01*
X206444Y299047D01*
X206469Y299155D01*
X206498Y299262D01*
X206530Y299368D01*
X206566Y299473D01*
X206606Y299576D01*
X206649Y299678D01*
X206696Y299779D01*
X206747Y299878D01*
X206800Y299975D01*
X206857Y300069D01*
X206918Y300162D01*
X206981Y300253D01*
X207048Y300342D01*
X207118Y300428D01*
X207191Y300511D01*
X207266Y300593D01*
X207344Y300671D01*
X207426Y300746D01*
X207509Y300819D01*
X207595Y300889D01*
X207684Y300956D01*
X207775Y301019D01*
X207868Y301080D01*
X207963Y301137D01*
X208059Y301190D01*
X208158Y301241D01*
X208259Y301288D01*
X208361Y301331D01*
X208464Y301371D01*
X208569Y301407D01*
X208675Y301439D01*
X208782Y301468D01*
X208890Y301493D01*
X208999Y301514D01*
X209108Y301531D01*
X209218Y301545D01*
X209329Y301554D01*
X209439Y301560D01*
X209550Y301562D01*
X209661Y301560D01*
X209771Y301554D01*
X209882Y301545D01*
X209992Y301531D01*
X210101Y301514D01*
X210210Y301493D01*
X210318Y301468D01*
X210425Y301439D01*
X210531Y301407D01*
X210636Y301371D01*
X210739Y301331D01*
X210841Y301288D01*
X210942Y301241D01*
X211041Y301190D01*
X211138Y301137D01*
X211232Y301080D01*
X211325Y301019D01*
X211416Y300956D01*
X211505Y300889D01*
X211591Y300819D01*
X211674Y300746D01*
X211756Y300671D01*
X211834Y300593D01*
X211909Y300511D01*
X211982Y300428D01*
X212052Y300342D01*
X212119Y300253D01*
X212182Y300162D01*
X212243Y300069D01*
X212300Y299975D01*
X212353Y299878D01*
X212404Y299779D01*
X212451Y299678D01*
X212494Y299576D01*
X212534Y299473D01*
X212570Y299368D01*
X212602Y299262D01*
X212631Y299155D01*
X212656Y299047D01*
X212677Y298938D01*
X212694Y298829D01*
X212708Y298719D01*
X212717Y298608D01*
X212723Y298498D01*
X212725Y298387D01*
X212725Y295212D01*
X217805Y306642D02*
X206375Y306642D01*
X206375Y309817D01*
X206377Y309928D01*
X206383Y310038D01*
X206392Y310149D01*
X206406Y310259D01*
X206423Y310368D01*
X206444Y310477D01*
X206469Y310585D01*
X206498Y310692D01*
X206530Y310798D01*
X206566Y310903D01*
X206606Y311006D01*
X206649Y311108D01*
X206696Y311209D01*
X206747Y311308D01*
X206800Y311405D01*
X206857Y311499D01*
X206918Y311592D01*
X206981Y311683D01*
X207048Y311772D01*
X207118Y311858D01*
X207191Y311941D01*
X207266Y312023D01*
X207344Y312101D01*
X207426Y312176D01*
X207509Y312249D01*
X207595Y312319D01*
X207684Y312386D01*
X207775Y312449D01*
X207868Y312510D01*
X207963Y312567D01*
X208059Y312620D01*
X208158Y312671D01*
X208259Y312718D01*
X208361Y312761D01*
X208464Y312801D01*
X208569Y312837D01*
X208675Y312869D01*
X208782Y312898D01*
X208890Y312923D01*
X208999Y312944D01*
X209108Y312961D01*
X209218Y312975D01*
X209329Y312984D01*
X209439Y312990D01*
X209550Y312992D01*
X209661Y312990D01*
X209771Y312984D01*
X209882Y312975D01*
X209992Y312961D01*
X210101Y312944D01*
X210210Y312923D01*
X210318Y312898D01*
X210425Y312869D01*
X210531Y312837D01*
X210636Y312801D01*
X210739Y312761D01*
X210841Y312718D01*
X210942Y312671D01*
X211041Y312620D01*
X211138Y312567D01*
X211232Y312510D01*
X211325Y312449D01*
X211416Y312386D01*
X211505Y312319D01*
X211591Y312249D01*
X211674Y312176D01*
X211756Y312101D01*
X211834Y312023D01*
X211909Y311941D01*
X211982Y311858D01*
X212052Y311772D01*
X212119Y311683D01*
X212182Y311592D01*
X212243Y311499D01*
X212300Y311405D01*
X212353Y311308D01*
X212404Y311209D01*
X212451Y311108D01*
X212494Y311006D01*
X212534Y310903D01*
X212570Y310798D01*
X212602Y310692D01*
X212631Y310585D01*
X212656Y310477D01*
X212677Y310368D01*
X212694Y310259D01*
X212708Y310149D01*
X212717Y310038D01*
X212723Y309928D01*
X212725Y309817D01*
X212725Y306642D01*
X206375Y316865D02*
X211773Y320675D01*
X206375Y324485D01*
X211773Y320675D02*
X217805Y320675D01*
X217805Y328930D02*
X217805Y332740D01*
X217803Y332840D01*
X217797Y332939D01*
X217787Y333039D01*
X217774Y333137D01*
X217756Y333236D01*
X217735Y333333D01*
X217710Y333429D01*
X217681Y333525D01*
X217648Y333619D01*
X217612Y333712D01*
X217572Y333803D01*
X217528Y333893D01*
X217481Y333981D01*
X217431Y334067D01*
X217377Y334151D01*
X217320Y334233D01*
X217260Y334312D01*
X217196Y334390D01*
X217130Y334464D01*
X217061Y334536D01*
X216989Y334605D01*
X216915Y334671D01*
X216837Y334735D01*
X216758Y334795D01*
X216676Y334852D01*
X216592Y334906D01*
X216506Y334956D01*
X216418Y335003D01*
X216328Y335047D01*
X216237Y335087D01*
X216144Y335123D01*
X216050Y335156D01*
X215954Y335185D01*
X215858Y335210D01*
X215761Y335231D01*
X215662Y335249D01*
X215564Y335262D01*
X215464Y335272D01*
X215365Y335278D01*
X215265Y335280D01*
X213995Y335280D01*
X213895Y335278D01*
X213796Y335272D01*
X213696Y335262D01*
X213598Y335249D01*
X213499Y335231D01*
X213402Y335210D01*
X213306Y335185D01*
X213210Y335156D01*
X213116Y335123D01*
X213023Y335087D01*
X212932Y335047D01*
X212842Y335003D01*
X212754Y334956D01*
X212668Y334906D01*
X212584Y334852D01*
X212502Y334795D01*
X212423Y334735D01*
X212345Y334671D01*
X212271Y334605D01*
X212199Y334536D01*
X212130Y334464D01*
X212064Y334390D01*
X212000Y334312D01*
X211940Y334233D01*
X211883Y334151D01*
X211829Y334067D01*
X211779Y333981D01*
X211732Y333893D01*
X211688Y333803D01*
X211648Y333712D01*
X211612Y333619D01*
X211579Y333525D01*
X211550Y333429D01*
X211525Y333333D01*
X211504Y333236D01*
X211486Y333137D01*
X211473Y333039D01*
X211463Y332939D01*
X211457Y332840D01*
X211455Y332740D01*
X211455Y328930D01*
X206375Y328930D01*
X206375Y335280D01*
X206375Y339725D02*
X217805Y343535D01*
X206375Y347345D01*
M02*
