G04 EAGLE Gerber RS-274X export*
G75*
%MOMM*%
%FSLAX34Y34*%
%LPD*%
%INSoldermask Bottom*%
%IPPOS*%
%AMOC8*
5,1,8,0,0,1.08239X$1,22.5*%
G01*
%ADD10R,2.082800X2.082800*%
%ADD11C,2.082800*%
%ADD12P,1.759533X8X202.500000*%
%ADD13C,2.184400*%
%ADD14P,2.034460X8X22.500000*%
%ADD15R,1.711200X1.711200*%
%ADD16C,1.711200*%
%ADD17P,1.649562X8X292.500000*%


D10*
X149900Y409000D03*
D11*
X175300Y409000D03*
X200700Y409000D03*
X226100Y409000D03*
X251500Y409000D03*
X276900Y409000D03*
X302300Y409000D03*
X327700Y409000D03*
X353100Y409000D03*
X378500Y409000D03*
X403900Y409000D03*
X429300Y409000D03*
X454700Y409000D03*
X480100Y409000D03*
X505500Y409000D03*
X530900Y409000D03*
D12*
X508000Y469900D03*
X355600Y469900D03*
D13*
X139700Y637794D02*
X139700Y657606D01*
X231394Y622300D02*
X251206Y622300D01*
X251206Y673100D02*
X231394Y673100D01*
D14*
X431800Y520700D03*
X406400Y38100D03*
X457200Y520700D03*
X482600Y520700D03*
X508000Y520700D03*
X533400Y520700D03*
X406400Y520700D03*
X381000Y520700D03*
X355600Y520700D03*
X314960Y520700D03*
X289560Y520700D03*
X264160Y520700D03*
X238760Y520700D03*
X213360Y520700D03*
X187960Y520700D03*
X162560Y520700D03*
X137160Y520700D03*
X431800Y38100D03*
X457200Y38100D03*
X482600Y38100D03*
X508000Y38100D03*
X533400Y38100D03*
X355600Y38100D03*
X330200Y38100D03*
X304800Y38100D03*
X279400Y38100D03*
X254000Y38100D03*
X228600Y38100D03*
D15*
X800100Y622300D03*
D16*
X774700Y622300D03*
X749300Y622300D03*
X723900Y622300D03*
D17*
X190500Y368300D03*
X190500Y266700D03*
M02*
