M48
;GenerationSoftware,Autodesk,EAGLE,9.2.2*%
;CreationDate,2018-12-04T07:17:17Z*%
FMAT,2
ICI,OFF
METRIC,TZ,000.000
T5C0.813
T4C0.914
T3C1.000
T2C1.016
T1C1.321
%
G90
M71
T1
X24130Y62230
X24130Y67310
X13970Y64770
T2
X14990Y40900
X17530Y40900
X20070Y40900
X22610Y40900
X25150Y40900
X27690Y40900
X30230Y40900
X32770Y40900
X35310Y40900
X37850Y40900
X40390Y40900
X42930Y40900
X45470Y40900
X48010Y40900
X50550Y40900
X53090Y40900
T3
X74930Y62230
X72390Y62230
X43180Y52070
X40640Y3810
X45720Y52070
X48260Y52070
X50800Y52070
X53340Y52070
X40640Y52070
X38100Y52070
X35560Y52070
X31496Y52070
X28956Y52070
X26416Y52070
X23876Y52070
X21336Y52070
X18796Y52070
X16256Y52070
X13716Y52070
X43180Y3810
X45720Y3810
X48260Y3810
X50800Y3810
X53340Y3810
X35560Y3810
X33020Y3810
X30480Y3810
X27940Y3810
X25400Y3810
X22860Y3810
X80010Y62230
X77470Y62230
T4
X50800Y46990
X35560Y46990
T5
X19050Y36830
X19050Y26670
M30